<?xml version="1.0" encoding="UTF-8"?>
<svg version="1.1" xmlns="http://www.w3.org/2000/svg" width="636" height="692">
<path d="M0 0 C1.63834832 1.52326364 3.26936259 3.05392645 4.89746094 4.58813477 C7.28387862 6.82379756 9.6996463 8.99224891 12.17871094 11.12329102 C18.61027426 16.70540258 24.26374437 22.85798905 29.80371094 29.31079102 C30.69894206 30.3308511 31.59482528 31.35033909 32.49121094 32.36938477 C44.02820677 45.55725565 54.39137343 59.53353982 63.80371094 74.31079102 C64.17028809 74.88555176 64.53686523 75.4603125 64.91455078 76.05249023 C88.48506075 113.36982073 105.0652826 155.36277325 113.67871094 198.62329102 C113.86981445 199.56229248 114.06091797 200.50129395 114.2578125 201.46875 C117.90077848 221.05382437 118.18008194 241.01728409 118.11621094 260.87329102 C118.11347672 262.64636627 118.11347672 262.64636627 118.11068726 264.45526123 C118.06371894 282.58686614 117.52863733 300.35738821 114.80371094 318.31079102 C114.63742187 319.44871094 114.47113281 320.58663086 114.29980469 321.7590332 C106.21014849 375.64513196 86.23284191 431.07709997 51.24853516 473.55541992 C49.71601685 475.41733385 48.19820857 477.29054633 46.68261719 479.16625977 C44.50503458 481.8587112 42.32140375 484.54604604 40.13183594 487.22875977 C37.90662722 489.95535952 35.68803505 492.68710893 33.47558594 495.42407227 C23.26836807 508.04593323 12.94262133 520.49547662 1.80371094 532.31079102 C1.34996094 532.79854004 0.89621094 533.28628906 0.42871094 533.78881836 C-12.51130185 547.63408062 -28.38093177 556.45933421 -47.60644531 557.49438477 C-63.19105971 557.77774139 -69.64345407 554.33202714 -81.02441406 543.65844727 C-86.28549199 538.53697895 -91.1433119 533.20781908 -95.69897461 527.45117188 C-97.41002312 525.2892928 -99.14423868 523.14894157 -100.89550781 521.01953125 C-107.56674053 512.86700363 -113.65901452 504.49257335 -119.41827393 495.67529297 C-121.28552486 492.81698689 -123.16958827 489.96988704 -125.05236816 487.12179565 C-126.01890898 485.65937366 -126.9846512 484.19642354 -127.94958496 482.73294067 C-132.6845354 475.55442119 -137.48865688 468.42382572 -142.32128906 461.31079102 C-142.7164975 460.72893036 -143.11170593 460.1470697 -143.51889038 459.5475769 C-152.57818507 446.21977402 -161.88812791 433.088416 -171.34228516 420.03881836 C-175.50045 414.29387099 -179.5994561 408.50940166 -183.67456055 402.70532227 C-186.77524563 398.29745069 -189.92486366 393.92915927 -193.10473633 389.578125 C-197.97630973 382.90029443 -202.7310968 376.16493568 -207.25878906 369.24829102 C-207.699729 368.58249023 -208.14066895 367.91668945 -208.5949707 367.23071289 C-216.0048556 355.74661027 -218.62370467 344.92927706 -217.19628906 331.31079102 C-216.06948344 326.96020965 -214.34558796 323.24574481 -212.19628906 319.31079102 C-211.66519531 318.3040332 -211.13410156 317.29727539 -210.58691406 316.26000977 C-207.31536091 310.35470626 -203.58901674 305.19229106 -199.30957031 299.99047852 C-191.8523552 290.53456435 -182.21506061 277.85866878 -183.42675781 265.26000977 C-184.03198121 261.17487238 -185.05787314 257.27874795 -186.19628906 253.31079102 C-186.46957031 252.29758789 -186.74285156 251.28438477 -187.02441406 250.24047852 C-190.71971082 238.44912249 -199.53376794 227.41429183 -210.21191406 221.12329102 C-218.21182369 217.50594057 -228.89457397 216.29319408 -237.31005859 218.98754883 C-245.00860932 222.13541653 -252.0927735 226.44176763 -258.39941406 231.86547852 C-260.19628906 233.31079102 -260.19628906 233.31079102 -262.37207031 234.39672852 C-264.80084916 235.61371834 -265.04357255 236.86974428 -266.19628906 239.31079102 C-266.98003906 240.07391602 -267.76378906 240.83704102 -268.57128906 241.62329102 C-282.9451125 258.70277534 -278.59993249 294.61858256 -278.46198654 315.50340652 C-278.44068468 319.14346821 -278.43160932 322.78352117 -278.42250347 326.42363071 C-278.36280564 349.8407535 -278.15387955 373.2569954 -277.94479227 396.67317104 C-277.92678454 398.69450979 -277.90892517 400.7158498 -277.89110947 402.73719025 C-277.85549459 406.77425958 -277.81950655 410.81132547 -277.78320312 414.84838867 C-277.77722461 415.51340393 -277.77124609 416.17841919 -277.76508641 416.86358643 C-277.68737878 425.46314583 -277.60091495 434.0625786 -277.50644207 442.66197109 C-277.45223927 447.67280207 -277.40266994 452.68367314 -277.3538456 457.6945591 C-277.33001241 460.01993971 -277.30404962 462.34529973 -277.27568626 464.6706295 C-277.14127714 475.72790657 -277.09843153 486.76394791 -277.5637207 497.81445312 C-277.59502044 498.64449388 -277.62632017 499.47453463 -277.65856838 500.32972813 C-278.1777049 510.71834221 -280.84028568 518.41116924 -286.19628906 527.31079102 C-286.54175781 527.97336914 -286.88722656 528.63594727 -287.24316406 529.31860352 C-291.48112993 536.58834497 -300.75778001 540.64999217 -308.63378906 542.74829102 C-320.30524154 544.70428029 -332.00497319 544.50936334 -341.82128906 537.62329102 C-346.29732985 534.15373426 -350.5107721 530.62015851 -354.19628906 526.31079102 C-354.69128906 525.74231445 -355.18628906 525.17383789 -355.69628906 524.58813477 C-362.39559077 515.62401231 -360.3483935 501.61204783 -360.40161133 490.9309082 C-360.41150243 489.66722223 -360.42139353 488.40353626 -360.43158436 487.10155678 C-360.4583579 483.6576476 -360.47953772 480.2137252 -360.49957418 476.7697711 C-360.52194486 473.08352204 -360.54940556 469.39731004 -360.57608032 465.71109009 C-360.63230783 457.79523406 -360.68154744 449.87934444 -360.72912216 441.96343231 C-360.75861793 437.05978179 -360.7896842 432.15614193 -360.82095337 427.25250244 C-360.95812267 405.64654096 -361.07882242 384.04051711 -361.18575096 362.4343853 C-361.19594841 360.37943855 -361.20627124 358.32449246 -361.21662903 356.26954651 C-361.2883696 341.94221173 -361.34738497 327.61497323 -361.37252808 313.28747559 C-361.37904695 309.59726387 -361.38982535 305.90710675 -361.40457153 302.21691895 C-361.57588301 256.8895028 -361.57588301 256.8895028 -357.00878906 236.12329102 C-356.79520752 235.13337158 -356.58162598 234.14345215 -356.36157227 233.12353516 C-349.52030512 202.93320027 -333.34042464 174.08432782 -306.75878906 157.06469727 C-302.96244918 154.71006992 -299.0920445 152.49592209 -295.19628906 150.31079102 C-294.47505859 149.90231934 -293.75382813 149.49384766 -293.01074219 149.07299805 C-290.78961237 147.8232488 -288.55817627 146.59458286 -286.32128906 145.37329102 C-285.64437012 144.9955957 -284.96745117 144.61790039 -284.27001953 144.22875977 C-279.99973891 141.94739123 -276.02082323 140.6624216 -271.27246094 139.73828125 C-268.54665246 139.17702882 -266.00140732 138.24800818 -263.38378906 137.31079102 C-234.81674771 128.37734051 -196.94987817 131.52230409 -170.35644531 145.02172852 C-163.63691971 148.61241097 -157.42161528 152.93744357 -151.19628906 157.31079102 C-150.0548754 158.03555855 -148.91297492 158.75956019 -147.77050781 159.48266602 C-146.92101562 160.08594727 -146.07152344 160.68922852 -145.19628906 161.31079102 C-145.19628906 161.97079102 -145.19628906 162.63079102 -145.19628906 163.31079102 C-144.60928223 163.57690186 -144.02227539 163.8430127 -143.41748047 164.1171875 C-130.52775191 171.0437519 -121.56090178 185.64469025 -115.19628906 198.31079102 C-114.79297363 199.09953613 -114.3896582 199.88828125 -113.97412109 200.70092773 C-98.72965233 230.75259759 -93.5813633 265.24847634 -104.04345703 297.79663086 C-104.61410889 299.53614014 -104.61410889 299.53614014 -105.19628906 301.31079102 C-105.67843959 302.79590941 -106.16035724 304.28110341 -106.64208984 305.76635742 C-109.71548751 315.21211814 -112.86651396 324.63032522 -116.07641602 334.03051758 C-117.70637091 338.80489604 -118.79566856 342.22141686 -118.19628906 347.31079102 C-116.52035883 349.82106195 -114.43448482 351.73945991 -112.19628906 353.74829102 C-111.62394531 354.28905273 -111.05160156 354.82981445 -110.46191406 355.38696289 C-109.05541 356.71142088 -107.62784107 358.01344701 -106.19628906 359.31079102 C-102.03450276 354.10046213 -98.68426279 348.922393 -95.88378906 342.87329102 C-95.31966309 341.66153198 -95.31966309 341.66153198 -94.74414062 340.42529297 C-80.23892149 308.48672644 -67.88052403 266.66072252 -77.19628906 231.31079102 C-78.33575211 228.3441195 -79.58130032 225.43728163 -80.84790039 222.52270508 C-83.54235991 216.10439809 -85.61556204 209.45088502 -87.80175781 202.84594727 C-91.16361707 192.90192148 -95.34943907 184.02860907 -101.38378906 175.43579102 C-102.09825195 174.41279907 -102.09825195 174.41279907 -102.82714844 173.36914062 C-110.19454026 162.94867236 -117.93195438 154.01234458 -128.19628906 146.31079102 C-128.75977051 145.87911621 -129.32325195 145.44744141 -129.90380859 145.00268555 C-138.93736652 138.08571553 -148.21037014 131.77506972 -158.19628906 126.31079102 C-158.83727539 125.95887695 -159.47826172 125.60696289 -160.13867188 125.24438477 C-194.6645597 106.70745441 -235.2984546 106.64961145 -272.14208984 117.67114258 C-283.4493701 121.19206893 -294.19724621 126.30892977 -304.93164062 131.26782227 C-306.84482629 132.14892718 -308.76582246 133.0130431 -310.68847656 133.87329102 C-322.69919818 139.48041835 -332.61298027 148.28926239 -342.19628906 157.31079102 C-342.88207031 157.93211914 -343.56785156 158.55344727 -344.27441406 159.19360352 C-363.25668229 177.05487165 -376.69327621 206.23446607 -380.88378906 231.62329102 C-381.00343018 232.34500488 -381.12307129 233.06671875 -381.24633789 233.81030273 C-383.17192196 246.61494808 -383.34461013 259.64527681 -383.38574219 272.56787109 C-383.39371966 274.01815513 -383.4021101 275.46843693 -383.41087341 276.91871643 C-383.42875601 280.01765578 -383.44383684 283.11659077 -383.45664978 286.21555519 C-383.47732909 291.19619827 -383.50493706 296.17679015 -383.5333252 301.15739441 C-383.58805613 310.91926659 -383.63605759 320.6811661 -383.68326569 330.44307709 C-383.8167241 357.90885036 -383.96844818 385.37440385 -384.1776886 412.839715 C-384.19625698 415.30652835 -384.21411261 417.77334599 -384.23181152 420.24016571 C-384.29993605 429.61596241 -384.38478035 438.99137414 -384.49293518 448.36679649 C-384.52517972 451.20258597 -384.55119634 454.03831411 -384.57115173 456.87421608 C-384.75123019 481.51553416 -386.25620135 504.56737959 -397.19628906 526.99829102 C-397.51621826 527.65796875 -397.83614746 528.31764648 -398.16577148 528.99731445 C-401.50925775 535.51732348 -405.27736206 539.48653298 -412.17675781 541.75219727 C-419.41719384 543.75487106 -426.74898933 543.47426833 -434.19628906 543.31079102 C-435.41058594 543.33786133 -435.41058594 543.33786133 -436.64941406 543.36547852 C-446.76054865 543.1108816 -454.7055908 534.35076542 -461.31738281 527.47875977 C-466.69050565 521.27900265 -468.30401946 515.46653604 -468.35450745 507.3480835 C-468.36429721 506.14899038 -468.37408697 504.94989727 -468.38417339 503.714468 C-468.38992791 502.40401827 -468.39568243 501.09356853 -468.40161133 499.7434082 C-468.41119697 498.33862849 -468.42119929 496.93385156 -468.43158436 495.52907753 C-468.45867401 491.69423984 -468.47967888 487.85938984 -468.49957418 484.02450895 C-468.52171714 479.94589339 -468.54928438 475.86731396 -468.57608032 471.78872681 C-468.63255496 463.02370723 -468.68164355 454.25865597 -468.72912216 445.49358368 C-468.7585092 440.07630199 -468.78959011 434.65903081 -468.82095337 429.24176025 C-468.95236633 406.45537802 -469.06933743 383.66894682 -469.17497253 360.88243103 C-469.19477459 356.61737814 -469.21531783 352.35232917 -469.23596191 348.08728027 C-469.29809456 335.09331833 -469.34907513 322.09943976 -469.37252808 309.10534668 C-469.37901717 305.54566746 -469.38976386 301.98604572 -469.40457153 298.4263916 C-469.72099041 218.17291369 -451.91672644 146.63860421 -394.82128906 87.62329102 C-386.08509437 79.07510625 -376.22679967 71.95867014 -366.24707031 64.94824219 C-362.49521828 62.29579713 -358.91699687 59.50349055 -355.38378906 56.56079102 C-347.72070465 50.20849736 -340.53795636 45.71859312 -331.19628906 42.31079102 C-329.90365928 41.79496888 -328.61207533 41.27652168 -327.32128906 40.75610352 C-265.71579928 16.41294331 -197.73411761 19.66032378 -136.19628906 42.31079102 C-135.57338989 42.53869324 -134.95049072 42.76659546 -134.30871582 43.00140381 C-130.22158361 44.49988474 -126.14844476 46.03080313 -122.08728027 47.59832764 C-120.75932622 48.10880395 -119.42903175 48.61323936 -118.09631348 49.11114502 C-105.75205656 53.74777026 -105.75205656 53.74777026 -101.45117188 59.69287109 C-99.34800168 62.4044876 -96.55000219 63.88302478 -93.63378906 65.62329102 C-83.45412625 71.88853415 -74.25292309 79.12225124 -65.46191406 87.23266602 C-63.39451027 89.12897432 -61.27878813 90.94108707 -59.13378906 92.74829102 C-19.65540132 127.50814636 5.99448915 185.35946231 9.61843872 237.11981201 C10.10453898 245.49201026 10.13679502 253.87063281 10.11938477 262.25463867 C10.11620507 265.44166749 10.13989333 268.62778054 10.16503906 271.81469727 C10.21933769 289.1743869 8.69586368 306.15066002 4.05371094 322.93579102 C3.79477051 323.89050293 3.53583008 324.84521484 3.26904297 325.82885742 C-3.60928423 350.54232114 -14.25270237 374.40627051 -29.19628906 395.31079102 C-29.69161133 396.00527344 -30.18693359 396.69975586 -30.69726562 397.4152832 C-37.29504237 406.58514561 -44.32518223 415.14135558 -52.11816406 423.33032227 C-54.00966122 425.3335238 -54.00966122 425.3335238 -56.19628906 428.31079102 C-55.86169218 431.26817203 -54.66810983 433.46950638 -53.12988281 435.98266602 C-52.72705078 436.6465332 -52.32421875 437.31040039 -51.90917969 437.99438477 C-51.48830078 438.67629883 -51.06742187 439.35821289 -50.63378906 440.06079102 C-50.20904297 440.75817383 -49.78429687 441.45555664 -49.34667969 442.17407227 C-48.3011882 443.88914818 -47.24935555 445.60035575 -46.19628906 447.31079102 C-13.85541851 432.42372362 7.30028742 388.98598563 18.99121094 357.62329102 C27.4576345 334.09158317 32.87220785 308.80474389 33.00683594 283.72875977 C33.01385025 282.84471466 33.02086456 281.96066956 33.02809143 281.04983521 C33.04553319 278.19926814 33.05194763 275.34890955 33.05371094 272.49829102 C33.05438568 271.51992279 33.05506042 270.54155457 33.05575562 269.53353882 C32.98370807 203.5709779 14.15200067 134.62147825 -32.61425781 86.01000977 C-34.658246 83.87325358 -36.57504091 81.72063041 -38.44628906 79.43579102 C-41.04453761 76.35414739 -43.95320808 73.77766982 -47.02441406 71.17407227 C-49.30748307 69.21539616 -51.4949551 67.17319093 -53.69628906 65.12329102 C-65.4959036 54.51264527 -78.69438419 45.59561597 -92.19628906 37.31079102 C-92.83469727 36.91794922 -93.47310547 36.52510742 -94.13085938 36.12036133 C-153.4837152 0.06603721 -226.03166954 -7.58652491 -292.87109375 8.17749023 C-301.95429803 10.4562333 -311.04247006 12.80234907 -319.86035156 15.97094727 C-324.3412723 17.4880303 -328.61131731 17.94149574 -333.32128906 18.12329102 C-334.14387207 18.15825684 -334.96645508 18.19322266 -335.81396484 18.22924805 C-347.81398594 18.5985152 -360.69895848 17.6262582 -371.19628906 11.31079102 C-380.87876872 1.72111468 -384.43317657 -10.60358995 -384.63378906 -23.81420898 C-384.67332807 -32.28274627 -384.11145312 -38.2206512 -378.19628906 -44.68920898 C-377.5659375 -45.44975586 -376.93558594 -46.21030273 -376.28613281 -46.99389648 C-353.01218868 -72.83449988 -307.67764386 -77.31984386 -275.19628906 -81.68920898 C-274.20951172 -81.82198242 -273.22273437 -81.95475586 -272.20605469 -82.09155273 C-179.94269226 -93.78043424 -71.34901829 -64.60493345 0 0 Z " fill="#0C8CDF" transform="translate(496.1962890625,108.689208984375)"/>
<path d="M0 0 C1.63834832 1.52326364 3.26936259 3.05392645 4.89746094 4.58813477 C7.28387862 6.82379756 9.6996463 8.99224891 12.17871094 11.12329102 C18.61027426 16.70540258 24.26374437 22.85798905 29.80371094 29.31079102 C30.69894206 30.3308511 31.59482528 31.35033909 32.49121094 32.36938477 C44.02820677 45.55725565 54.39137343 59.53353982 63.80371094 74.31079102 C64.17028809 74.88555176 64.53686523 75.4603125 64.91455078 76.05249023 C88.48506075 113.36982073 105.0652826 155.36277325 113.67871094 198.62329102 C113.86981445 199.56229248 114.06091797 200.50129395 114.2578125 201.46875 C117.90077848 221.05382437 118.18008194 241.01728409 118.11621094 260.87329102 C118.11347672 262.64636627 118.11347672 262.64636627 118.11068726 264.45526123 C118.06371894 282.58686614 117.52863733 300.35738821 114.80371094 318.31079102 C114.63742187 319.44871094 114.47113281 320.58663086 114.29980469 321.7590332 C106.21014849 375.64513196 86.23284191 431.07709997 51.24853516 473.55541992 C49.71601685 475.41733385 48.19820857 477.29054633 46.68261719 479.16625977 C44.50503458 481.8587112 42.32140375 484.54604604 40.13183594 487.22875977 C37.90662722 489.95535952 35.68803505 492.68710893 33.47558594 495.42407227 C23.26836807 508.04593323 12.94262133 520.49547662 1.80371094 532.31079102 C1.34996094 532.79854004 0.89621094 533.28628906 0.42871094 533.78881836 C-7.40846598 542.17426369 -16.11112801 549.69114659 -27.19628906 553.31079102 C-29.38769531 552.87329102 -29.38769531 552.87329102 -31.19628906 552.31079102 C-30.4834375 551.83770508 -29.77058594 551.36461914 -29.03613281 550.87719727 C-22.49038861 546.3577265 -17.50936358 542.00171807 -13.19628906 535.31079102 C-12.54273438 534.30790039 -11.88917969 533.30500977 -11.21582031 532.27172852 C-6.89671607 525.04735855 -4.30700549 518.75771695 -6.19628906 510.31079102 C-8.591963 505.1587046 -12.95053013 501.5497229 -16.94628906 497.62329102 C-26.73361568 487.99761694 -33.68229992 477.29708661 -40.19628906 465.31079102 C-40.81117188 464.27051758 -41.42605469 463.23024414 -42.05957031 462.15844727 C-42.90068359 460.71791992 -42.90068359 460.71791992 -43.75878906 459.24829102 C-44.25507813 458.41168945 -44.75136719 457.57508789 -45.26269531 456.71313477 C-46.45027669 453.65722452 -46.37450048 452.3684166 -45.19628906 449.31079102 C-43.02832031 446.86157227 -43.02832031 446.86157227 -40.19628906 444.31079102 C-39.17871023 443.36748317 -38.16180603 442.42344717 -37.14550781 441.47875977 C-36.05837889 440.48514909 -34.97113567 439.49166347 -33.88378906 438.49829102 C-32.15852905 436.90483509 -30.43559898 435.30889868 -28.71337891 433.7121582 C-27.49192459 432.58387565 -26.26151915 431.46528742 -25.02832031 430.34985352 C10.95467684 396.43837219 30.7206592 339.3884023 32.91157532 290.92480469 C32.9664666 288.52575205 32.99395272 286.12840306 33.00683594 283.72875977 C33.01385025 282.84471466 33.02086456 281.96066956 33.02809143 281.04983521 C33.04553319 278.19926814 33.05194763 275.34890955 33.05371094 272.49829102 C33.05438568 271.51992279 33.05506042 270.54155457 33.05575562 269.53353882 C32.98370807 203.5709779 14.15200067 134.62147825 -32.61425781 86.01000977 C-34.658246 83.87325358 -36.57504091 81.72063041 -38.44628906 79.43579102 C-41.04453761 76.35414739 -43.95320808 73.77766982 -47.02441406 71.17407227 C-49.30748307 69.21539616 -51.4949551 67.17319093 -53.69628906 65.12329102 C-65.4959036 54.51264527 -78.69438419 45.59561597 -92.19628906 37.31079102 C-92.83469727 36.91794922 -93.47310547 36.52510742 -94.13085938 36.12036133 C-153.4837152 0.06603721 -226.03166954 -7.58652491 -292.87109375 8.17749023 C-301.95429803 10.4562333 -311.04247006 12.80234907 -319.86035156 15.97094727 C-324.3412723 17.4880303 -328.61131731 17.94149574 -333.32128906 18.12329102 C-334.14387207 18.15825684 -334.96645508 18.19322266 -335.81396484 18.22924805 C-347.81398594 18.5985152 -360.69895848 17.6262582 -371.19628906 11.31079102 C-380.87876872 1.72111468 -384.43317657 -10.60358995 -384.63378906 -23.81420898 C-384.67332807 -32.28274627 -384.11145312 -38.2206512 -378.19628906 -44.68920898 C-377.5659375 -45.44975586 -376.93558594 -46.21030273 -376.28613281 -46.99389648 C-353.01218868 -72.83449988 -307.67764386 -77.31984386 -275.19628906 -81.68920898 C-274.20951172 -81.82198242 -273.22273438 -81.95475586 -272.20605469 -82.09155273 C-179.94269226 -93.78043424 -71.34901829 -64.60493345 0 0 Z " fill="#1999DD" transform="translate(496.1962890625,108.689208984375)"/>
<path d="M0 0 C1.14141367 0.72476753 2.28331414 1.44876917 3.42578125 2.171875 C4.27527344 2.77515625 5.12476563 3.3784375 6 4 C6 4.66 6 5.32 6 6 C6.58700684 6.26611084 7.17401367 6.53222168 7.77880859 6.80639648 C20.66853715 13.73296088 29.63538728 28.33389923 36 41 C36.60497314 42.18311768 36.60497314 42.18311768 37.22216797 43.39013672 C52.46663673 73.44180657 57.61492576 107.93768532 47.15283203 140.48583984 C46.58218018 142.22534912 46.58218018 142.22534912 46 144 C45.51784947 145.48511839 45.03593182 146.9703124 44.55419922 148.45556641 C41.48080156 157.90132712 38.3297751 167.31953421 35.11987305 176.71972656 C32.56343948 184.20789779 31.21509563 190.53012348 34.71484375 197.98828125 C38.20597234 204.95272957 38.20597234 204.95272957 43 211 C43.061875 212.27875 43.12375 213.5575 43.1875 214.875 C44.64790688 230.32065923 60.63896943 243.92518574 71 254 C77.39271555 260.2161212 83.42751084 266.48062274 88.97851562 273.46777344 C91.09293933 276.1164211 93.28722288 278.68326963 95.5 281.25 C101.97733836 289.19538564 106.89087647 298.05402973 111.73046875 307.0546875 C116.53692077 315.9915283 121.12109653 324.44964978 128 332 C128.72960937 332.82371094 129.45921875 333.64742187 130.2109375 334.49609375 C132.45654508 337.01378007 134.72555029 339.50837194 137 342 C138.50350456 343.66350588 140.00369425 345.3300159 141.5 347 C142.1496875 347.721875 142.799375 348.44375 143.46875 349.1875 C146.67087148 352.97776624 146.57763249 356.61182939 146.53125 361.44140625 C144.65988895 373.97677327 134.9201742 385.76242176 125.0625 393.125 C122 395 122 395 120 395 C120 395.66 120 396.32 120 397 C110.86922368 399.54812362 102.47220021 400.59848653 93 400 C92.17628906 399.95359375 91.35257812 399.9071875 90.50390625 399.859375 C76.4791642 397.95940995 63.73177728 380.54565017 55.49731445 370.14038086 C53.78626594 367.97850178 52.05205039 365.83815055 50.30078125 363.70874023 C43.62954853 355.55621262 37.53727455 347.18178234 31.77801514 338.36450195 C29.91076421 335.50619588 28.02670079 332.65909602 26.1439209 329.81100464 C25.17738008 328.34858265 24.21163786 326.88563252 23.2467041 325.42214966 C18.51175366 318.24363017 13.70763218 311.11303471 8.875 304 C8.47979156 303.41813934 8.08458313 302.83627869 7.67739868 302.23678589 C-1.381896 288.908983 -10.69183885 275.77762499 -20.14599609 262.72802734 C-24.30416094 256.98307997 -28.40316704 251.19861065 -32.47827148 245.39453125 C-35.57895656 240.98665967 -38.7285746 236.61836826 -41.90844727 232.26733398 C-46.78002066 225.58950341 -51.53480774 218.85414467 -56.0625 211.9375 C-56.50343994 211.27169922 -56.94437988 210.60589844 -57.39868164 209.91992188 C-64.80856654 198.43581925 -67.42741561 187.61848604 -66 174 C-64.87319437 169.64941864 -63.1492989 165.93495379 -61 162 C-60.46890625 160.99324219 -59.9378125 159.98648438 -59.390625 158.94921875 C-56.11907185 153.04391524 -52.39272767 147.88150005 -48.11328125 142.6796875 C-40.65606614 133.22377333 -31.01877155 120.54787777 -32.23046875 107.94921875 C-32.83569215 103.86408136 -33.86158408 99.96795693 -35 96 C-35.27328125 94.98679687 -35.5465625 93.97359375 -35.828125 92.9296875 C-39.52342176 81.13833147 -48.33747888 70.10350082 -59.015625 63.8125 C-67.01553463 60.19514956 -77.69828491 58.98240307 -86.11376953 61.67675781 C-93.81232026 64.82462551 -100.89648443 69.13097661 -107.203125 74.5546875 C-109 76 -109 76 -111.17578125 77.0859375 C-113.6045601 78.30292733 -113.84728349 79.55895326 -115 82 C-115.78375 82.763125 -116.5675 83.52625 -117.375 84.3125 C-131.74882344 101.39198432 -127.40364343 137.30779154 -127.26569748 158.19261551 C-127.24439561 161.8326772 -127.23532026 165.47273016 -127.22621441 169.1128397 C-127.16651658 192.52996248 -126.95759049 215.94620438 -126.74850321 239.36238003 C-126.73049548 241.38371878 -126.71263611 243.40505878 -126.6948204 245.42639923 C-126.65920552 249.46346857 -126.62321749 253.50053445 -126.58691406 257.53759766 C-126.58093555 258.20261292 -126.57495703 258.86762817 -126.56879735 259.55279541 C-126.49108971 268.15235482 -126.40462589 276.75178758 -126.31015301 285.35118008 C-126.2559502 290.36201106 -126.20638088 295.37288213 -126.15755653 300.38376808 C-126.13372335 302.7091487 -126.10776056 305.03450872 -126.0793972 307.35983849 C-125.94498808 318.41711556 -125.90214247 329.45315689 -126.36743164 340.50366211 C-126.39873137 341.33370286 -126.43003111 342.16374361 -126.46227932 343.01893711 C-126.98141584 353.4075512 -129.64399662 361.10037822 -135 370 C-135.34546875 370.66257812 -135.6909375 371.32515625 -136.046875 372.0078125 C-140.28484087 379.27755395 -149.56149095 383.33920115 -157.4375 385.4375 C-169.10895248 387.39348927 -180.80868413 387.19857233 -190.625 380.3125 C-195.10104079 376.84294325 -199.31448304 373.30936749 -203 369 C-203.495 368.43152344 -203.99 367.86304688 -204.5 367.27734375 C-211.19930171 358.31322129 -209.15210444 344.30125681 -209.20532227 333.62011719 C-209.21521337 332.35643122 -209.22510447 331.09274525 -209.2352953 329.79076576 C-209.26206884 326.34685659 -209.28324866 322.90293418 -209.30328512 319.45898008 C-209.3256558 315.77273103 -209.3531165 312.08651902 -209.37979126 308.40029907 C-209.43601877 300.48444305 -209.48525838 292.56855343 -209.5328331 284.6526413 C-209.56232887 279.74899077 -209.59339514 274.84535091 -209.62466431 269.94171143 C-209.76183361 248.33574994 -209.88253335 226.72972609 -209.9894619 205.12359428 C-209.99965934 203.06864753 -210.00998218 201.01370144 -210.02033997 198.95875549 C-210.09208054 184.63142071 -210.1510959 170.30418221 -210.17623901 155.97668457 C-210.18275789 152.28647285 -210.19353628 148.59631574 -210.20828247 144.90612793 C-210.37959395 99.57871179 -210.37959395 99.57871179 -205.8125 78.8125 C-205.59891846 77.82258057 -205.38533691 76.83266113 -205.1652832 75.81274414 C-198.32401606 45.62240925 -182.14413558 16.77353681 -155.5625 -0.24609375 C-151.76616011 -2.60072109 -147.89575544 -4.81486893 -144 -7 C-143.27876953 -7.40847168 -142.55753906 -7.81694336 -141.81445312 -8.23779297 C-139.59332331 -9.48754221 -137.3618872 -10.71620816 -135.125 -11.9375 C-134.44808105 -12.31519531 -133.77116211 -12.69289062 -133.07373047 -13.08203125 C-128.80344985 -15.36339979 -124.82453417 -16.64836942 -120.07617188 -17.57250977 C-117.35036339 -18.13376219 -114.80511826 -19.06278283 -112.1875 -20 C-74.11949654 -31.90457984 -31.75749067 -22.30992176 0 0 Z " fill="#021748" transform="translate(345,266)"/>
<path d="M0 0 C1.65625 1.9140625 1.65625 1.9140625 3.5 4.625 C6.22203378 8.53573844 9.0124866 12.28738572 12.03491211 15.96948242 C19.92617838 25.63542511 30.76267709 39.72827215 32.29467773 52.44628906 C32 55 32 55 30.25585938 56.51391602 C29.06186523 57.12771118 29.06186523 57.12771118 27.84375 57.75390625 C26.98652344 58.21603516 26.12929687 58.67816406 25.24609375 59.15429688 C24.33988281 59.61900391 23.43367187 60.08371094 22.5 60.5625 C20.71144438 61.48730792 18.92972449 62.42549703 17.15625 63.37890625 C16.36025391 63.7869751 15.56425781 64.19504395 14.74414062 64.61547852 C13.88079102 65.30081665 13.88079102 65.30081665 13 66 C13 67.32 13 68.64 13 70 C11.25927734 72.17895508 11.25927734 72.17895508 8.8359375 74.51953125 C7.96066406 75.37740234 7.08539063 76.23527344 6.18359375 77.11914062 C5.25675781 78.00794922 4.32992187 78.89675781 3.375 79.8125 C-7.38793317 90.02778298 -7.38793317 90.02778298 -16 102 C-17.13094289 103.5728744 -18.2629767 105.14507108 -19.41259766 106.7043457 C-33.1568002 125.38877578 -43.89021839 146.30612306 -47.6875 169.3125 C-47.80714111 170.03421387 -47.92678223 170.75592773 -48.05004883 171.49951172 C-49.9756329 184.30415706 -50.14832107 197.33448579 -50.18945312 210.25708008 C-50.1974306 211.70736411 -50.20582104 213.15764592 -50.21458435 214.60792542 C-50.23246695 217.70686477 -50.24754778 220.80579976 -50.26036072 223.90476418 C-50.28104003 228.88540726 -50.308648 233.86599913 -50.33703613 238.84660339 C-50.39176707 248.60847558 -50.43976853 258.37037508 -50.48697662 268.13228607 C-50.62043504 295.59805934 -50.77215911 323.06361284 -50.98139954 350.52892399 C-50.99996791 352.99573733 -51.01782355 355.46255497 -51.03552246 357.92937469 C-51.10364698 367.30517139 -51.18849128 376.68058312 -51.29664612 386.05600548 C-51.32889066 388.89179495 -51.35490728 391.7275231 -51.37486267 394.56342506 C-51.55494113 419.20474314 -53.05991229 442.25658857 -64 464.6875 C-64.3199292 465.34717773 -64.6398584 466.00685547 -64.96948242 466.68652344 C-68.31296868 473.20653246 -72.081073 477.17574197 -78.98046875 479.44140625 C-86.22090478 481.44408004 -93.55270027 481.16347731 -101 481 C-101.80953125 481.01804687 -102.6190625 481.03609375 -103.453125 481.0546875 C-113.56425959 480.80009059 -121.50930174 472.0399744 -128.12109375 465.16796875 C-133.49421659 458.96821163 -135.1077304 453.15574502 -135.15821838 445.03729248 C-135.16800815 443.83819937 -135.17779791 442.63910625 -135.18788433 441.40367699 C-135.19363885 440.09322725 -135.19939337 438.78277752 -135.20532227 437.43261719 C-135.21490791 436.02783747 -135.22491023 434.62306055 -135.2352953 433.21828651 C-135.26238495 429.38344882 -135.28338982 425.54859882 -135.30328512 421.71371794 C-135.32542807 417.63510237 -135.35299532 413.55652294 -135.37979126 409.47793579 C-135.4362659 400.71291622 -135.48535448 391.94786495 -135.5328331 383.18279266 C-135.56222014 377.76551097 -135.59330105 372.3482398 -135.62466431 366.93096924 C-135.75607727 344.14458701 -135.87304837 321.35815581 -135.97868347 298.57164001 C-135.99848553 294.30658713 -136.01902876 290.04153815 -136.03967285 285.77648926 C-136.1018055 272.78252731 -136.15278607 259.78864875 -136.17623901 246.79455566 C-136.18272811 243.23487644 -136.1934748 239.67525471 -136.20828247 236.11560059 C-136.52047031 156.93524217 -119.44511838 84.4780361 -62.55419922 26.37060547 C-56.33976683 20.13918795 -51.21852988 15.37546763 -43 12 C-40.92520944 10.75056569 -38.97943962 9.40009144 -37 8 C-36.01 8.495 -36.01 8.495 -35 9 C-35.66 9.99 -36.32 10.98 -37 12 C-36.26136719 11.68546875 -35.52273437 11.3709375 -34.76171875 11.046875 C-8.5753012 0 -8.5753012 0 0 0 Z " fill="#001745" transform="translate(163,171)"/>
<path d="M0 0 C0.02835937 0.63164062 0.05671875 1.26328125 0.0859375 1.9140625 C1.02145153 10.68766709 5.26758859 16.37181805 10.51757812 23.09814453 C13.0970042 26.40738846 15.60550031 29.77005993 18.125 33.125 C18.63651611 33.80119385 19.14803223 34.4773877 19.67504883 35.17407227 C22.61300192 39.07510256 25.39880644 43.02868598 28.0625 47.125 C32.26268493 53.55242287 36.96206127 59.53238458 41.78710938 65.49658203 C42.82204071 66.77941359 43.84227569 68.07407845 44.859375 69.37109375 C47.58102098 72.74509302 49.74484031 74.8736342 54 76 C50.45411315 77.18196228 48.03737592 76.81979749 44.3125 76.5625 C32.27958126 76.19468797 21.68835472 82.90801494 12.796875 90.5546875 C11 92 11 92 8.82421875 93.0859375 C6.3954399 94.30292733 6.15271651 95.55895326 5 98 C4.21625 98.763125 3.4325 99.52625 2.625 100.3125 C-11.74882344 117.39198432 -7.40364343 153.30779154 -7.26569748 174.19261551 C-7.24439561 177.8326772 -7.23532026 181.47273016 -7.22621441 185.1128397 C-7.16651658 208.52996248 -6.95759049 231.94620438 -6.74850321 255.36238003 C-6.73049548 257.38371878 -6.71263611 259.40505878 -6.6948204 261.42639923 C-6.65920552 265.46346857 -6.62321749 269.50053445 -6.58691406 273.53759766 C-6.58093555 274.20261292 -6.57495703 274.86762817 -6.56879735 275.55279541 C-6.49108971 284.15235482 -6.40462589 292.75178758 -6.31015301 301.35118008 C-6.2559502 306.36201106 -6.20638088 311.37288213 -6.15755653 316.38376808 C-6.13372335 318.7091487 -6.10776056 321.03450872 -6.0793972 323.35983849 C-5.94498808 334.41711556 -5.90214247 345.45315689 -6.36743164 356.50366211 C-6.39873137 357.33370286 -6.43003111 358.16374361 -6.46227932 359.01893711 C-6.98141584 369.4075512 -9.64399662 377.10037822 -15 386 C-15.34546875 386.66257812 -15.6909375 387.32515625 -16.046875 388.0078125 C-20.28484087 395.27755395 -29.56149095 399.33920115 -37.4375 401.4375 C-49.10895248 403.39348927 -60.80868413 403.19857233 -70.625 396.3125 C-75.10104079 392.84294325 -79.31448304 389.30936749 -83 385 C-83.495 384.43152344 -83.99 383.86304688 -84.5 383.27734375 C-91.19930171 374.31322129 -89.15210444 360.30125681 -89.20532227 349.62011719 C-89.21521337 348.35643122 -89.22510447 347.09274525 -89.2352953 345.79076576 C-89.26206884 342.34685659 -89.28324866 338.90293418 -89.30328512 335.45898008 C-89.3256558 331.77273103 -89.3531165 328.08651902 -89.37979126 324.40029907 C-89.43601877 316.48444305 -89.48525838 308.56855343 -89.5328331 300.6526413 C-89.56232887 295.74899077 -89.59339514 290.84535091 -89.62466431 285.94171143 C-89.76183361 264.33574994 -89.88253335 242.72972609 -89.9894619 221.12359428 C-89.99965934 219.06864753 -90.00998218 217.01370144 -90.02033997 214.95875549 C-90.09208054 200.63142071 -90.1510959 186.30418221 -90.17623901 171.97668457 C-90.18275789 168.28647285 -90.19353628 164.59631574 -90.20828247 160.90612793 C-90.37959395 115.57871179 -90.37959395 115.57871179 -85.8125 94.8125 C-85.59891846 93.82258057 -85.38533691 92.83266113 -85.1652832 91.81274414 C-78.32401606 61.62240925 -62.14413558 32.77353681 -35.5625 15.75390625 C-31.7662922 13.39897402 -27.89262459 11.19063465 -24 9 C-23.26813477 8.58089355 -22.53626953 8.16178711 -21.78222656 7.72998047 C-19.53142072 6.44705013 -17.2685674 5.18871249 -15 3.9375 C-14.30632324 3.54304687 -13.61264648 3.14859375 -12.89794922 2.7421875 C-8.33372818 0.28325886 -5.18184014 -0.42507282 0 0 Z " fill="#011746" transform="translate(225,250)"/>
<path d="M0 0 C0.62289917 0.22790222 1.24579834 0.45580444 1.88757324 0.69061279 C5.97470545 2.18909372 10.04784431 3.72001212 14.10900879 5.28753662 C15.43696285 5.79801294 16.76725731 6.30244835 18.09997559 6.800354 C30.4442325 11.43697924 30.4442325 11.43697924 34.74511719 17.38208008 C36.84828738 20.09369659 39.64628688 21.57223377 42.5625 23.3125 C52.74216281 29.57774314 61.94336598 36.81146022 70.734375 44.921875 C72.8017788 46.81818331 74.91750093 48.63029606 77.0625 50.4375 C86.51997782 58.74116553 93.73453832 68.81477334 101 79 C100.67 79.66 100.34 80.32 100 81 C99.27296875 80.14019531 98.5459375 79.28039062 97.796875 78.39453125 C81.64236037 59.36526768 64.77807244 42.82167832 44.78833008 27.83935547 C44.07638992 27.30567352 43.36444977 26.77199158 42.63093567 26.22213745 C42.0927269 25.81883209 41.55451813 25.41552673 41 25 C40.97663139 39.64701271 40.95900134 54.29402296 40.94818783 68.94105053 C40.9430333 75.74203808 40.93600664 82.54301403 40.92456055 89.34399414 C40.91352246 95.90567817 40.90771763 102.46735331 40.90512276 109.02904701 C40.9032732 111.53410342 40.89966157 114.03915915 40.89426994 116.54421043 C40.88702514 120.04926358 40.88601052 123.55426676 40.88647461 127.05932617 C40.88287933 128.09798325 40.87928406 129.13664032 40.87557983 130.20677185 C40.87764183 131.64328094 40.87764183 131.64328094 40.87974548 133.10881042 C40.87882369 133.93750232 40.8779019 134.76619421 40.87695217 135.61999798 C41.00827739 138.16010202 41.44363367 140.52106716 42 143 C39.38176897 139.80060556 36.92315528 136.52711797 34.55102539 133.14135742 C26.7370684 121.9972654 18.9523694 112.24911283 8 104 C7.43506836 103.566875 6.87013672 103.13375 6.28808594 102.6875 C-2.74395275 95.77226864 -12.01610008 89.46317391 -22 84 C-22.96147949 83.47212891 -22.96147949 83.47212891 -23.94238281 82.93359375 C-58.46827063 64.39666339 -99.10216554 64.33882044 -135.94580078 75.36035156 C-147.25308104 78.88127791 -158.00095715 83.99813876 -168.73535156 88.95703125 C-170.64853723 89.83813616 -172.5695334 90.70225208 -174.4921875 91.5625 C-185.64319455 96.76827517 -194.82077839 104.67613337 -203.78125 112.9921875 C-206.11160618 115.10099573 -208.52862054 117.059445 -211 119 C-209.36485277 115.0125357 -206.59968445 112.15329471 -203.6875 109.0625 C-202.90475708 108.22174927 -202.90475708 108.22174927 -202.10620117 107.36401367 C-197.55281984 102.50792944 -192.85985502 97.79460117 -188.10229492 93.13891602 C-185.18530372 90.35022567 -185.18530372 90.35022567 -183 87 C-183.99 86.505 -183.99 86.505 -185 86 C-182.0460832 84.15947576 -179.08617092 82.32882635 -176.125 80.5 C-175.28324219 79.97535156 -174.44148438 79.45070313 -173.57421875 78.91015625 C-172.36572266 78.16572266 -172.36572266 78.16572266 -171.1328125 77.40625 C-170.38918457 76.94541016 -169.64555664 76.48457031 -168.87939453 76.00976562 C-167 75 -167 75 -165 75 C-168.1147174 60.4288508 -176.78692658 47.41587612 -186 36 C-187.51970404 34.09771313 -189.03558384 32.19252705 -190.54736328 30.28393555 C-191.54107592 29.03194729 -192.54057464 27.78452513 -193.54638672 26.54223633 C-197 22.22120102 -197 22.22120102 -197 20 C-208.96474449 23.41118613 -220.51872118 27.20441823 -232 32 C-233.485 32.495 -233.485 32.495 -235 33 C-234.67 31.68 -234.34 30.36 -234 29 C-236.97 30.98 -239.94 32.96 -243 35 C-243.66 34.67 -244.32 34.34 -245 34 C-239.48971227 29.31408603 -234.0222888 24.91446854 -227.9375 21 C-223.85194489 18.35391508 -220.25684469 15.55975599 -216.6875 12.25 C-210.14393098 6.18497498 -203.27752278 3.13761462 -195 0 C-193.70549583 -0.52025312 -192.41124441 -1.04113538 -191.1171875 -1.5625 C-129.4770646 -25.86087487 -61.5677603 -22.66148433 0 0 Z " fill="#02B6C9" transform="translate(360,151)"/>
<path d="M0 0 C1.14141367 0.72476753 2.28331414 1.44876917 3.42578125 2.171875 C4.27527344 2.77515625 5.12476563 3.3784375 6 4 C6 4.66 6 5.32 6 6 C6.58700684 6.26611084 7.17401367 6.53222168 7.77880859 6.80639648 C20.66853715 13.73296088 29.63538728 28.33389923 36 41 C36.60497314 42.18311768 36.60497314 42.18311768 37.22216797 43.39013672 C53.3295712 75.14292336 57.13217058 109.93612599 46 144 C45.52283835 145.48499642 45.04631976 146.97019955 44.5703125 148.45556641 C41.97363974 156.53597644 39.32838483 164.60051781 36.609375 172.640625 C36.25963623 173.68903313 36.25963623 173.68903313 35.90283203 174.75862122 C34.8526912 177.83500821 33.81633298 180.27550053 32 183 C32 181.02 32 179.04 32 177 C31.071875 178.7325 31.071875 178.7325 30.125 180.5 C28.45712957 182.78978821 27.42319535 183.83927424 24.7578125 184.8515625 C21.77744189 185.17652503 19.84041309 184.98387803 17 184 C13.85595864 181.4141399 11.64366944 178.32753166 9.35449219 174.97851562 C7.79200784 172.69618449 6.18238883 170.45068905 4.5703125 168.203125 C-0.37363163 161.26699252 -5.26209479 154.30483044 -9.75 147.0625 C-14.5480905 139.34911401 -20.14035248 131.92278026 -26.4375 125.375 C-31.55423852 119.48212699 -32.02436655 110.8964006 -33.4375 103.5 C-36.66090888 87.25138787 -43.54150648 75.08879529 -57 65 C-60.97859035 62.6313778 -65.01217229 60.60968518 -69.4453125 59.25 C-72.96653594 57.52707721 -75.10966544 54.90409844 -77.5625 51.9375 C-78.07989746 51.32261719 -78.59729492 50.70773437 -79.13037109 50.07421875 C-84.69065461 43.35281226 -89.64919488 36.22144455 -94.59033203 29.04003906 C-96.71672367 25.96277399 -98.88626598 22.91713148 -101.0625 19.875 C-101.45977295 19.31748047 -101.8570459 18.75996094 -102.26635742 18.18554688 C-104.46866123 15.10400981 -106.70031167 12.04685448 -108.9609375 9.0078125 C-109.70525024 8.00451904 -109.70525024 8.00451904 -110.46459961 6.98095703 C-111.41692457 5.70014073 -112.37320831 4.42225428 -113.33422852 3.14794922 C-120.47899036 -6.46221202 -120.47899036 -6.46221202 -120.1875 -12.875 C-120.16042969 -13.65617188 -120.13335937 -14.43734375 -120.10546875 -15.2421875 C-120.07066406 -15.82226562 -120.03585938 -16.40234375 -120 -17 C-80.0251517 -32.65554895 -34.29699293 -24.09394485 0 0 Z " fill="#3488FD" transform="translate(345,266)"/>
<path d="M0 0 C1.4397006 0.95213472 2.87838898 1.9058001 4.31665039 2.86010742 C5.11792862 3.39101486 5.91920685 3.9219223 6.74476624 4.46891785 C14.19892286 9.52955784 20.90623243 15.70315808 27.546875 21.76953125 C29.14506558 23.22266313 30.75909256 24.65862443 32.390625 26.07421875 C41.96479954 34.42845814 50.94424428 43.75229174 58.4375 54.03515625 C60.03759094 56.13752264 60.03759094 56.13752264 62.36328125 58.265625 C65.47730838 61.49498646 67.79109364 64.91146318 70.1875 68.6875 C70.6609082 69.42863037 71.13431641 70.16976074 71.62207031 70.93334961 C96.38149874 110.14401462 106.41163553 149.73295604 106.31567383 195.94384766 C106.31249414 199.13087648 106.33618239 202.31698953 106.36132812 205.50390625 C106.4175077 223.2992996 104.72875161 240.45393904 99.875 257.625 C99.61074219 258.60210937 99.34648437 259.57921875 99.07421875 260.5859375 C98.12138106 264.08773692 97.14777105 267.55668685 96 271 C95.34 271 94.68 271 94 271 C93.649375 272.2375 93.29875 273.475 92.9375 274.75 C90.88501355 280.9669517 87.59603855 286.5506185 84 292 C83.67 292 83.34 292 83 292 C83.00444122 290.89991608 83.00888245 289.79983215 83.01345825 288.66641235 C83.05426421 278.22356981 83.08410783 267.78074375 83.10362434 257.33783913 C83.11399572 251.97096012 83.12803121 246.60414623 83.15087891 241.23730469 C83.1728472 236.04364775 83.18461837 230.85005286 83.18975449 225.656353 C83.19340772 223.68954875 83.20053929 221.72274732 83.21146011 219.75597 C83.46486114 172.16250387 66.19845778 133.30520975 45.4375 91.5 C45.0584552 90.73369263 44.6794104 89.96738525 44.28887939 89.17785645 C43.19846519 86.97947609 42.0989673 84.78590192 40.99609375 82.59375 C40.68094315 81.95753723 40.36579254 81.32132446 40.04109192 80.66583252 C37.42213913 75.50593812 34.27963453 70.76208622 31 66 C31.00261841 66.8655098 31.00523682 67.73101959 31.00793457 68.62275696 C31.06594597 91.0374609 30.88954316 113.44080712 30.53643799 135.8526001 C30.47415271 139.8437612 30.41497408 143.83496853 30.35546875 147.82617188 C30.23987561 155.55082728 30.12108196 163.27542846 30 171 C20.54297732 167.86630395 20.54297732 167.86630395 18.69580078 164.91918945 C15.35180894 157.13951213 12.54976695 149.21894173 9.875 141.1875 C9.0234052 138.63750703 8.1655738 136.08986776 7.3046875 133.54296875 C6.93327637 132.42946045 6.56186523 131.31595215 6.17919922 130.16870117 C5.0625095 126.9804639 5.0625095 126.9804639 3.48095703 124.02856445 C-0.02226829 116.86445134 -0.28137133 110.60326426 -0.22705078 102.74047852 C-0.22734283 101.62754929 -0.22763489 100.51462006 -0.22793579 99.3679657 C-0.22654717 95.70486541 -0.21100772 92.04197083 -0.1953125 88.37890625 C-0.19158072 85.83300386 -0.18873452 83.28710002 -0.18673706 80.74119568 C-0.17989202 74.73483981 -0.16414369 68.72857166 -0.14403808 62.72225088 C-0.12163647 55.88063294 -0.11067496 49.0390114 -0.10064721 42.19736588 C-0.07977614 28.13153675 -0.04462686 14.0657724 0 0 Z " fill="#00D9B5" transform="translate(400,175)"/>
<path d="M0 0 C1.94158506 -0.02176958 3.8830673 -0.05608997 5.82421875 -0.10253906 C8.64806081 -0.16925334 11.46991715 -0.19692475 14.29443359 -0.21606445 C15.16111664 -0.24389511 16.02779968 -0.27172577 16.92074585 -0.30039978 C17.72903839 -0.29762527 18.53733093 -0.29485077 19.37011719 -0.29199219 C20.07719818 -0.30229965 20.78427917 -0.31260712 21.51278687 -0.32322693 C24.93553192 0.91799603 25.89334214 3.26287629 27.52099609 6.4050293 C28.00874329 9.89118958 28.00874329 9.89118958 27.9909668 13.77148438 C27.9931572 14.48276489 27.9953476 15.19404541 27.99760437 15.92687988 C27.99990184 18.25992518 27.97374703 20.59168528 27.94677734 22.92456055 C27.94185085 24.55026347 27.93855366 26.17597207 27.93681335 27.80168152 C27.92919163 31.19854009 27.90868007 34.59497454 27.87768555 37.99169922 C27.83795397 42.35440977 27.82004978 46.71684575 27.81037617 51.07971668 C27.80042897 55.23636873 27.78053328 59.39295322 27.75927734 63.54956055 C27.7558816 64.34612375 27.75248585 65.14268696 27.7489872 65.96338844 C27.73746568 68.2041909 27.71895733 70.44481529 27.69799805 72.68554688 C27.68323174 74.60032585 27.68323174 74.60032585 27.66816711 76.55378723 C27.52099609 79.4050293 27.52099609 79.4050293 26.52099609 80.4050293 C24.83680283 80.45368124 23.15081086 80.44144482 21.46630859 80.4050293 C4.62512953 80.33324144 -9.11842349 83.40460622 -24.80517578 89.41235352 C-27.99654052 90.59716807 -31.18728192 91.54447912 -34.47900391 92.4050293 C-34.47900391 93.0650293 -34.47900391 93.7250293 -34.47900391 94.4050293 C-35.18541016 94.66155273 -35.89181641 94.91807617 -36.61962891 95.18237305 C-46.34963232 98.81278889 -55.78944703 103.00810206 -65.21435547 107.36206055 C-67.12754114 108.24316546 -69.04853731 109.10728138 -70.97119141 109.9675293 C-82.12219845 115.17330447 -91.2997823 123.08116267 -100.26025391 131.3972168 C-102.59061008 133.50602503 -105.00762445 135.4644743 -107.47900391 137.4050293 C-105.84385667 133.41756499 -103.07868836 130.55832401 -100.16650391 127.4675293 C-99.38376099 126.62677856 -99.38376099 126.62677856 -98.58520508 125.76904297 C-94.03182375 120.91295874 -89.33885893 116.19963047 -84.58129883 111.54394531 C-81.66430763 108.75525497 -81.66430763 108.75525497 -79.47900391 105.4050293 C-80.46900391 104.9100293 -80.46900391 104.9100293 -81.47900391 104.4050293 C-78.52508711 102.56450506 -75.56517483 100.73385565 -72.60400391 98.9050293 C-71.76224609 98.38038086 -70.92048828 97.85573242 -70.05322266 97.31518555 C-68.84472656 96.57075195 -68.84472656 96.57075195 -67.61181641 95.8112793 C-66.86818848 95.35043945 -66.12456055 94.88959961 -65.35839844 94.41479492 C-63.47900391 93.4050293 -63.47900391 93.4050293 -61.47900391 93.4050293 C-64.5937213 78.83388009 -73.26593048 65.82090541 -82.47900391 54.4050293 C-83.99870794 52.50274243 -85.51458775 50.59755634 -87.02636719 48.68896484 C-88.02007983 47.43697659 -89.01957854 46.18955442 -90.02539062 44.94726562 C-93.47900391 40.62623032 -93.47900391 40.62623032 -93.47900391 38.4050293 C-105.4437484 41.81621543 -116.99772508 45.60944753 -128.47900391 50.4050293 C-129.96400391 50.9000293 -129.96400391 50.9000293 -131.47900391 51.4050293 C-131.14900391 50.0850293 -130.81900391 48.7650293 -130.47900391 47.4050293 C-133.44900391 49.3850293 -136.41900391 51.3650293 -139.47900391 53.4050293 C-140.13900391 53.0750293 -140.79900391 52.7450293 -141.47900391 52.4050293 C-135.96871618 47.71911532 -130.5012927 43.31949784 -124.41650391 39.4050293 C-120.33094879 36.75894438 -116.7358486 33.96478529 -113.16650391 30.6550293 C-106.62293488 24.59000427 -99.75652668 21.54264392 -91.47900391 18.4050293 C-90.18449974 17.88477618 -88.89024832 17.36389391 -87.59619141 16.8425293 C-59.58220654 5.79948989 -30.01944066 0.25318833 0 0 Z " fill="#5352FD" transform="translate(256.47900390625,132.594970703125)"/>
<path d="M0 0 C0.495 0.99 0.495 0.99 1 2 C3.62108596 2.91474141 6.21040893 3.73537821 8.875 4.5 C16.61800156 6.74533437 16.61800156 6.74533437 20 9 C20.37181091 11.30160522 20.37181091 11.30160522 20.36889648 14.21240234 C20.37577988 15.30048187 20.38266327 16.3885614 20.38975525 17.50961304 C20.38359695 18.68980011 20.37743866 19.86998718 20.37109375 21.0859375 C20.38847693 23.56770971 20.40606131 26.04948051 20.42382812 28.53125 C20.433909 32.45738302 20.43749634 36.38342488 20.43579102 40.30957031 C20.43935338 44.08947231 20.4666731 47.86866177 20.49609375 51.6484375 C20.48791122 52.82457611 20.4797287 54.00071472 20.47129822 55.2124939 C20.48133377 56.30687775 20.49136932 57.4012616 20.50170898 58.52880859 C20.50154282 59.49096283 20.50137665 60.45311707 20.50120544 61.44442749 C20.76844222 64.15035797 20.76844222 64.15035797 22.99702454 65.84884644 C25.86427069 68.92820856 25.57296138 71.89221586 25.54589844 75.88964844 C25.55623611 76.68027176 25.56657379 77.47089508 25.57722473 78.28547668 C25.60667641 80.8936501 25.60815236 83.50104829 25.609375 86.109375 C25.6243551 87.91971316 25.64108188 89.73003764 25.65948486 91.54034424 C25.70318992 96.30129622 25.72316443 101.06206385 25.73822021 105.82318115 C25.75777994 110.68301306 25.79975122 115.54264553 25.83984375 120.40234375 C25.91518001 129.93483437 25.96545079 139.46728042 26 149 C22.57978149 147.71324027 20.51589986 146.63025894 18 144 C17.01 143.67 16.02 143.34 15 143 C14.15625 141.0234375 14.15625 141.0234375 13.5 138.375 C13.25121094 137.38242187 13.00242187 136.38984375 12.74609375 135.3671875 C11.9460035 131.75630898 11.24990124 128.13393736 10.5625 124.5 C7.33909112 108.25138787 0.45849352 96.08879529 -13 86 C-16.97859035 83.6313778 -21.01217229 81.60968518 -25.4453125 80.25 C-28.96653594 78.52707721 -31.10966544 75.90409844 -33.5625 72.9375 C-34.07989746 72.32261719 -34.59729492 71.70773437 -35.13037109 71.07421875 C-40.69065461 64.35281226 -45.64919488 57.22144455 -50.59033203 50.04003906 C-52.71672367 46.96277399 -54.88626598 43.91713148 -57.0625 40.875 C-57.45977295 40.31748047 -57.8570459 39.75996094 -58.26635742 39.18554688 C-60.46866123 36.10400981 -62.70031167 33.04685448 -64.9609375 30.0078125 C-65.70525024 29.00451904 -65.70525024 29.00451904 -66.46459961 27.98095703 C-67.41692457 26.70014073 -68.37320831 25.42225428 -69.33422852 24.14794922 C-76.47899036 14.53778798 -76.47899036 14.53778798 -76.1875 8.125 C-76.16042969 7.34382812 -76.13335937 6.56265625 -76.10546875 5.7578125 C-76.07066406 5.17773438 -76.03585938 4.59765625 -76 4 C-53.53088592 -4.79969106 -23.56352091 -6.53020056 0 0 Z " fill="#6472FE" transform="translate(301,245)"/>
<path d="M0 0 C18.76644286 0.74145346 33.95366238 3.98197981 52 11 C52 38.72 52 66.44 52 95 C41.90938511 93.87882057 41.90938511 93.87882057 38.265625 92.6953125 C37.45536865 92.44281738 36.6451123 92.19032227 35.81030273 91.93017578 C34.96540283 91.66446777 34.12050293 91.39875977 33.25 91.125 C4.54833005 82.58620853 -24.22003994 83.22160636 -52.9453125 91.328125 C-56 92 -56 92 -59 91 C-54.77667401 89.21976393 -50.53166338 87.51269832 -46.25341797 85.86865234 C-44.78529629 85.30271768 -43.32054391 84.72793853 -41.85986328 84.14306641 C-31.49334359 80.05756344 -22.010393 78.56562108 -10.859375 78.33203125 C-9.61784668 78.29646118 -8.37631836 78.26089111 -7.09716797 78.22424316 C-4.06489569 78.13887842 -1.03277834 78.06436351 2 78 C2.04636473 68.56835215 2.08189024 59.1367436 2.10362434 49.7050066 C2.11405624 45.32535078 2.12820461 40.94577301 2.15087891 36.56616211 C2.17262844 32.33865785 2.1845731 28.11122861 2.18975449 23.88367271 C2.19344645 22.27175402 2.20065593 20.65983937 2.21146011 19.04795265 C2.22600315 16.78814484 2.22797678 14.528646 2.22705078 12.26879883 C2.231492 10.98306473 2.23593323 9.69733063 2.24050903 8.37263489 C2.0092773 5.13009472 1.40134677 2.90800169 0 0 Z " fill="#0864F5" transform="translate(281,134)"/>
<path d="M0 0 C10.57424622 0.62201448 19.86878632 5.17120479 29 10.25 C29.60328125 10.58386719 30.2065625 10.91773438 30.828125 11.26171875 C32.08181 11.98074397 33.32004958 12.72730173 34.54227161 13.49859715 C36.39454208 14.63013152 38.29566988 15.68224516 40.21623516 16.6935339 C45.13830152 19.45584855 49.2246692 21.80891466 51.16631508 27.29600716 C51.55951151 31.31600647 51.54669636 35.22486974 51.3840332 39.25024414 C51.37048404 40.77860637 51.36270685 42.30702894 51.36022949 43.83544922 C51.33732925 47.96324962 51.2342622 52.08552738 51.1161921 56.21155477 C51.0064054 60.53113202 50.97112924 64.85131913 50.92778015 69.17198181 C50.83455535 77.34358504 50.67481782 85.51246412 50.49086493 93.6824736 C50.28461233 102.98777084 50.15297689 112.29366215 50.02744925 121.60034382 C49.76769337 140.73539503 49.41474684 159.86771205 49 179 C47.87443444 178.04736304 46.75057589 177.09270896 45.62744141 176.13720703 C45.00141022 175.60580109 44.37537903 175.07439514 43.7303772 174.52688599 C41.75046531 172.77981042 40.0507017 170.91390798 38.375 168.875 C36.52926061 166.63310191 34.83904538 164.87501147 32.53515625 163.0859375 C29.82564335 160.85653859 28.06788411 158.620693 26.0625 155.75 C25.38316406 154.78964844 24.70382812 153.82929688 24.00390625 152.83984375 C23.34261719 151.90269531 22.68132812 150.96554687 22 150 C20.83983162 148.43266893 19.67399541 146.86950101 18.5 145.3125 C18.0153125 144.66925781 17.530625 144.02601563 17.03125 143.36328125 C16.6909375 142.91339844 16.350625 142.46351563 16 142 C19.55225704 143.71435014 22.74021634 145.77742023 26 148 C25.75688835 146.99393456 25.75688835 146.99393456 25.50886536 145.96754456 C24.90869349 142.46752885 24.85542877 139.05764838 24.8581543 135.51928711 C24.85294266 134.41592262 24.85294266 134.41592262 24.84762573 133.29026794 C24.84029797 131.69975978 24.83493679 130.10924159 24.83133507 128.51872063 C24.82414341 126.00096802 24.8084592 123.48340733 24.78999329 120.9657135 C24.73763312 113.80976904 24.68950987 106.65393493 24.67407227 99.49780273 C24.66399946 95.11518968 24.63470187 90.73306793 24.59275246 86.35064888 C24.58043617 84.6821317 24.57532236 83.0135452 24.57755089 81.34498405 C24.57990018 79.01322642 24.55777137 76.68288475 24.5300293 74.35131836 C24.53663071 73.66289856 24.54323212 72.97447876 24.55003357 72.26519775 C24.48458271 68.9172383 24.34321746 67.36322256 22.00099182 64.88447571 C21.01050087 63.95166023 21.01050087 63.95166023 20 63 C19.48101807 60.43096924 19.48101807 60.43096924 19.45410156 57.49707031 C19.43438293 56.39623108 19.41466431 55.29539185 19.39434814 54.16119385 C19.39311951 52.97878113 19.39189087 51.79636841 19.390625 50.578125 C19.37408875 49.36300232 19.35755249 48.14787964 19.34051514 46.89593506 C19.29192037 43.01390587 19.2706376 39.13226877 19.25 35.25 C19.2218501 32.61846974 19.19192407 29.98695783 19.16015625 27.35546875 C19.08615804 20.90371728 19.03458278 14.4520766 19 8 C17.57107422 7.49339844 17.57107422 7.49339844 16.11328125 6.9765625 C14.8463359 6.52609304 13.57940984 6.07556933 12.3125 5.625 C11.07113281 5.18414062 9.82976562 4.74328125 8.55078125 4.2890625 C5.67475597 3.24496091 2.8313056 2.15850745 0 1 C0 0.67 0 0.34 0 0 Z " fill="#4A7EFC" transform="translate(301,246)"/>
<path d="M0 0 C1.59533569 0.00761353 1.59533569 0.00761353 3.22290039 0.01538086 C4.42547485 0.02516968 4.42547485 0.02516968 5.65234375 0.03515625 C5.66692627 1.12940918 5.68150879 2.22366211 5.6965332 3.35107422 C6.01179535 25.43704026 6.81623157 47.31243378 9.03125 69.29296875 C9.13727539 70.47898682 9.24330078 71.66500488 9.35253906 72.88696289 C9.53208154 74.77230509 9.75232378 76.65540948 10.05371094 78.52514648 C10.296875 80.6015625 10.296875 80.6015625 9.65234375 84.03515625 C7.02966129 86.59061108 4.00369187 88.15832249 0.77734375 89.84765625 C-1.06941234 90.88600424 -2.91575847 91.92508165 -4.76171875 92.96484375 C-5.69918945 93.47885742 -6.63666016 93.99287109 -7.60253906 94.52246094 C-24.08535209 103.60530597 -39.54568277 114.09616539 -52.34765625 128.03515625 C-52.34765625 124.56031195 -51.99270741 124.28580464 -49.70703125 121.8828125 C-49.13621826 121.27655029 -48.56540527 120.67028809 -47.97729492 120.0456543 C-47.35701416 119.40281494 -46.7367334 118.75997559 -46.09765625 118.09765625 C-45.47028564 117.43612549 -44.84291504 116.77459473 -44.1965332 116.09301758 C-39.54852951 111.21556955 -34.81381506 106.42396862 -29.99316406 101.71704102 C-27.32870574 99.13748225 -27.32870574 99.13748225 -25.34765625 96.03515625 C-26.33765625 95.54015625 -26.33765625 95.54015625 -27.34765625 95.03515625 C-24.39373945 93.19463201 -21.43382717 91.3639826 -18.47265625 89.53515625 C-17.63089844 89.01050781 -16.78914063 88.48585938 -15.921875 87.9453125 C-14.71337891 87.20087891 -14.71337891 87.20087891 -13.48046875 86.44140625 C-12.73684082 85.98056641 -11.99321289 85.51972656 -11.22705078 85.04492188 C-9.34765625 84.03515625 -9.34765625 84.03515625 -7.34765625 84.03515625 C-10.46237365 69.46400705 -19.13458283 56.45103237 -28.34765625 45.03515625 C-29.86736029 43.13286938 -31.38324009 41.2276833 -32.89501953 39.3190918 C-33.88873217 38.06710354 -34.88823089 36.81968138 -35.89404297 35.57739258 C-39.34765625 31.25635727 -39.34765625 31.25635727 -39.34765625 29.03515625 C-51.31240074 32.44634238 -62.86637743 36.23957448 -74.34765625 41.03515625 C-75.83265625 41.53015625 -75.83265625 41.53015625 -77.34765625 42.03515625 C-77.01765625 40.71515625 -76.68765625 39.39515625 -76.34765625 38.03515625 C-79.31765625 40.01515625 -82.28765625 41.99515625 -85.34765625 44.03515625 C-86.00765625 43.70515625 -86.66765625 43.37515625 -87.34765625 43.03515625 C-81.83736852 38.34924228 -76.36994505 33.94962479 -70.28515625 30.03515625 C-66.19960114 27.38907133 -62.60450094 24.59491224 -59.03515625 21.28515625 C-52.4953088 15.22358063 -45.62513217 12.16197784 -37.34765625 9.03515625 C-35.86586339 8.45578551 -34.3840946 7.87635318 -32.90234375 7.296875 C-21.90511972 3.05264248 -11.91377287 -0.07410087 0 0 Z " fill="#9748F9" transform="translate(202.34765625,141.96484375)"/>
<path d="M0 0 C10.93711466 1.32015233 23.26048018 4.06484767 32.65278625 10.0539093 C34.84301818 13.21776507 34.38987914 16.70661579 34.34057617 20.41870117 C34.34123329 21.70682961 34.34123329 21.70682961 34.34190369 23.02098083 C34.33981223 25.86187407 34.31646443 28.7021785 34.29296875 31.54296875 C34.28737406 33.51165952 34.28310337 35.48035447 34.28010559 37.4490509 C34.2686468 42.63263464 34.23917066 47.81596651 34.20599365 52.99945068 C34.17531508 58.28801059 34.16160499 63.57661115 34.14648438 68.86523438 C34.11430201 79.24360029 34.06309311 89.62177921 34 100 C32.58373312 99.54094177 31.16858725 99.07842435 29.75390625 98.61450195 C28.9657251 98.35731888 28.17754395 98.1001358 27.36547852 97.8351593 C23.76467018 96.56385265 20.39880348 94.9173691 17 93.1875 C16.35289062 92.86974609 15.70578125 92.55199219 15.0390625 92.22460938 C13.74363032 91.57305307 12.46305836 90.89086756 11.20140076 90.17610168 C9.02339721 88.94976069 9.02339721 88.94976069 6.66542053 88.12858582 C3.69097557 86.74904211 2.0563386 85.58209566 0 83 C-1.31192225 76.76228973 -1.04739571 70.6031477 -0.87890625 64.2578125 C-0.86210992 62.4055389 -0.84930358 60.55322517 -0.84031677 58.70089722 C-0.80603187 53.83692075 -0.71769879 48.97538209 -0.61798096 44.11236572 C-0.52573808 39.14555847 -0.48477175 34.17835531 -0.43945312 29.2109375 C-0.34307061 19.47289004 -0.18956703 9.7366481 0 0 Z " fill="#02A1D4" transform="translate(333,146)"/>
<path d="M0 0 C0.79599609 -0.00386719 1.59199219 -0.00773438 2.41210938 -0.01171875 C9.73806061 -0.0001545 17.01222571 0.54541407 24.3125 1.125 C24.28893433 2.83876831 24.28893433 2.83876831 24.26489258 4.5871582 C24.20960074 8.92416006 24.17579854 13.26113263 24.14770508 17.59838867 C24.13283997 19.45716632 24.11254195 21.31591038 24.08618164 23.17456055 C23.84805256 40.42724581 24.40968889 57.44978719 32.3125 73.125 C32.69277344 73.88941406 33.07304687 74.65382813 33.46484375 75.44140625 C33.74457031 75.99699219 34.02429688 76.55257812 34.3125 77.125 C28.16686893 80.13756425 28.16686893 80.13756425 24.921875 80.08984375 C21.19197759 78.7106751 19.19475121 76.12415533 16.75 73.125 C16.23260254 72.50560547 15.71520508 71.88621094 15.18212891 71.24804688 C9.63870441 64.50011279 4.66906839 57.35482083 -0.27783203 50.16503906 C-2.40422367 47.08777399 -4.57376598 44.04213148 -6.75 41 C-7.14727295 40.44248047 -7.5445459 39.88496094 -7.95385742 39.31054688 C-10.15616123 36.22900981 -12.38781167 33.17185448 -14.6484375 30.1328125 C-15.39275024 29.12951904 -15.39275024 29.12951904 -16.15209961 28.10595703 C-17.10442457 26.82514073 -18.06070831 25.54725428 -19.02172852 24.27294922 C-26.16649036 14.66278798 -26.16649036 14.66278798 -25.875 8.25 C-25.84792969 7.46882812 -25.82085937 6.68765625 -25.79296875 5.8828125 C-25.75816406 5.30273438 -25.72335938 4.72265625 -25.6875 4.125 C-17.37110539 0.05527498 -9.13522175 -0.04332912 0 0 Z " fill="#925AFC" transform="translate(250.6875,244.875)"/>
<path d="M0 0 C1.65 0 3.3 0 5 0 C6.10037305 9.38312716 6.41521504 18.77733062 6.75390625 28.2109375 C6.81956828 29.98719906 6.88540311 31.76345424 6.95140076 33.53970337 C7.08874686 37.25637648 7.2237719 40.97312485 7.35717773 44.68994141 C7.52622705 49.39383444 7.70136333 54.09747694 7.87835789 58.80107689 C8.01570953 62.47159391 8.14952851 66.14223385 8.2823925 69.8129158 C8.3454733 71.54364677 8.40962285 73.27433921 8.47497749 75.00498581 C8.93834583 87.34186095 9.07309053 99.65469715 9 112 C7.87926859 111.04363587 6.75914047 110.08656473 5.63926697 109.12919617 C5.0154309 108.59630321 4.39159483 108.06341024 3.74885464 107.51436901 C-6.23459095 98.86949922 -15.96920867 89.22746522 -23 78 C-23.50917969 77.22398437 -24.01835937 76.44796875 -24.54296875 75.6484375 C-26.86309323 71.86604969 -28.19096318 68.95307128 -28.4375 64.5 C-28.71878168 59.74303037 -30.68269158 56.99849135 -33.4296875 53.203125 C-34.9370932 51.0882573 -36.22266771 48.98123929 -37.4375 46.6875 C-37.76621094 46.07261719 -38.09492188 45.45773437 -38.43359375 44.82421875 C-39 43 -39 43 -38 39 C-34.04 42.96 -30.08 46.92 -26 51 C-21.43196109 45.28002085 -18.13188388 39.65810003 -15.125 33 C-14.52171875 31.69482422 -14.52171875 31.69482422 -13.90625 30.36328125 C-12.92900129 28.24590905 -11.96049039 26.12501282 -11 24 C-10.34 24 -9.68 24 -9 24 C-8.7215625 23.13375 -8.443125 22.2675 -8.15625 21.375 C-6.71106533 17.15662314 -4.96928647 13.0988171 -3.21875 9 C-2.01360267 6.03348351 -0.97958087 3.04758492 0 0 Z " fill="#4350FB" transform="translate(416,417)"/>
<path d="M0 0 C4.24948329 -0.17415915 8.49805155 -0.28081127 12.75 -0.375 C13.9565625 -0.42527344 15.163125 -0.47554687 16.40625 -0.52734375 C18.14648438 -0.55634766 18.14648438 -0.55634766 19.921875 -0.5859375 C20.99018555 -0.6173584 22.05849609 -0.6487793 23.15917969 -0.68115234 C26 0 26 0 28.1481781 2.58216858 C30.29104385 6.53716765 30.49046247 8.89346242 30.4699707 13.36645508 C30.4721611 14.0777356 30.4743515 14.78901611 30.47660828 15.52185059 C30.47890574 17.85489588 30.45275094 20.18665598 30.42578125 22.51953125 C30.42085476 24.14523417 30.41755756 25.77094277 30.41581726 27.39665222 C30.40819553 30.7935108 30.38768398 34.18994524 30.35668945 37.58666992 C30.31695788 41.94938047 30.29905369 46.31181645 30.28938007 50.67468739 C30.27943288 54.83133943 30.25953719 58.98792393 30.23828125 63.14453125 C30.2348855 63.94109446 30.23148975 64.73765766 30.2279911 65.55835915 C30.21646958 67.7991616 30.19796123 70.03978599 30.17700195 72.28051758 C30.16715775 73.5570369 30.15731354 74.83355621 30.14717102 76.14875793 C30 79 30 79 29 80 C27.14630389 80.08737645 25.28932459 80.10698153 23.43359375 80.09765625 C22.30888672 80.09443359 21.18417969 80.09121094 20.02539062 80.08789062 C18.84138672 80.07951172 17.65738281 80.07113281 16.4375 80.0625 C15.24962891 80.05798828 14.06175781 80.05347656 12.83789062 80.04882812 C9.89187774 80.03699675 6.94596319 80.02051287 4 80 C3.47619304 70.60300207 2.95447519 61.20589113 2.43539429 51.80863094 C2.19427714 47.44471026 1.9524515 43.08083128 1.70898438 38.71704102 C1.47387608 34.50259537 1.24065807 30.28804891 1.00872803 26.0734272 C0.92009226 24.46871807 0.83078542 22.86404586 0.74078369 21.25941277 C0.61445306 19.00498698 0.49054957 16.75043952 0.3671875 14.49584961 C0.29612793 13.21455673 0.22506836 11.93326385 0.15185547 10.61314392 C0.00296328 7.07050635 -0.02683861 3.54528451 0 0 Z " fill="#1A55FD" transform="translate(254,133)"/>
<path d="M0 0 C1.24170898 2.48341795 1.23877963 4.34885294 1.38891602 7.1262207 C1.44890274 8.19947098 1.50888947 9.27272125 1.57069397 10.37849426 C1.63115402 11.54909897 1.69161407 12.71970367 1.75390625 13.92578125 C1.85166603 15.74459053 1.85166603 15.74459053 1.95140076 17.60014343 C2.08889877 20.18342469 2.22408626 22.76682977 2.35717773 25.3503418 C2.55826295 29.23073653 2.76978719 33.11045766 2.98242188 36.99023438 C3.74676106 51.34174923 4.20458828 65.62841448 4 80 C2.5437455 80.67119549 1.08492133 81.33681807 -0.375 82 C-1.18710938 82.37125 -1.99921875 82.7425 -2.8359375 83.125 C-5 84 -5 84 -7 84 C-7 84.66 -7 85.32 -7 86 C-7.70640625 86.25652344 -8.4128125 86.51304687 -9.140625 86.77734375 C-17.40434183 89.86066523 -25.39386486 93.37801138 -33.37011719 97.14038086 C-34.2005957 97.52460205 -35.03107422 97.90882324 -35.88671875 98.3046875 C-36.63139404 98.65515137 -37.37606934 99.00561523 -38.14331055 99.36669922 C-38.75601807 99.57568848 -39.36872559 99.78467773 -40 100 C-40.66 99.67 -41.32 99.34 -42 99 C-38.39859681 96.84950259 -34.79342235 94.70540968 -31.1875 92.5625 C-29.65125977 91.64500977 -29.65125977 91.64500977 -28.08398438 90.70898438 C-27.10107422 90.12568359 -26.11816406 89.54238281 -25.10546875 88.94140625 C-24.19949951 88.40201416 -23.29353027 87.86262207 -22.36010742 87.30688477 C-20 86 -20 86 -17 85 C-17.12117188 83.9476416 -17.24234375 82.8952832 -17.3671875 81.81103516 C-20.43022574 54.77076474 -21.49609249 28.20240495 -21 1 C-28.92 1.495 -28.92 1.495 -37 2 C-33.18311211 -0.54459193 -29.83991802 -0.95060703 -25.375 -1.6875 C-24.60542969 -1.82994141 -23.83585937 -1.97238281 -23.04296875 -2.11914062 C-15.07113635 -3.46113251 -7.6158865 -2.69729313 0 0 Z " fill="#714DFE" transform="translate(229,141)"/>
<path d="M0 0 C11.50981643 11.21705392 14.62201093 25.46682246 15.09251404 41.0675354 C15.12316787 44.49618812 15.11767486 47.92282969 15.09765625 51.3515625 C15.09378906 52.6422464 15.08992188 53.9329303 15.0859375 55.26272583 C15.02762356 71.01267697 14.78095835 86.76134411 14.53643799 102.50927734 C14.47445493 106.53350389 14.41509524 110.55776922 14.35546875 114.58203125 C14.23944511 122.3880594 14.12068118 130.19404231 14 138 C5.77979094 135.26320763 5.77979094 135.26320763 4 134 C3.05859375 131.55859375 3.05859375 131.55859375 2.4375 128.4375 C2.08365234 126.69146484 2.08365234 126.69146484 1.72265625 124.91015625 C1.48417969 123.61980469 1.24570312 122.32945312 1 121 C0.86706543 120.3076123 0.73413086 119.61522461 0.59716797 118.90185547 C0.1801067 116.72791747 -0.22538404 114.55220955 -0.625 112.375 C-0.74818604 111.70782959 -0.87137207 111.04065918 -0.99829102 110.35327148 C-3.08128723 98.45845621 -3.23545634 86.54187259 -3.25 74.5 C-3.25233643 73.61523987 -3.25467285 72.73047974 -3.25708008 71.81890869 C-3.28052025 47.83268724 -1.64752076 23.91951158 0 0 Z " fill="#02B6C9" transform="translate(416,208)"/>
<path d="M0 0 C2.97 0.33 5.94 0.66 9 1 C11.64388809 1.24818767 14.28823073 1.4869185 16.93359375 1.71875 C19 2 19 2 21 3 C21 30.72 21 58.44 21 87 C11 85.88888889 11 85.88888889 6.21484375 83.1328125 C2.94467995 81.46024195 -0.5607948 80.28970195 -4 79 C-2.68 52.93 -1.36 26.86 0 0 Z " fill="#047CE8" transform="translate(312,142)"/>
<path d="M0 0 C6.32265026 0.57478639 10.73503009 1.9116767 17 4 C17 32.71 17 61.42 17 91 C9.58242188 89.94034598 4.64642367 89.09391912 0 83 C-1.41670481 76.71573615 -1.16619022 70.56845787 -0.9765625 64.16015625 C-0.95789558 62.30931935 -0.94366835 60.4584328 -0.9336853 58.60752869 C-0.89562353 53.75151531 -0.79750904 48.89852527 -0.68664551 44.04370117 C-0.58407988 39.08358664 -0.53861994 34.12298019 -0.48828125 29.16210938 C-0.38124804 19.44008265 -0.21073211 9.72029335 0 0 Z " fill="#028FDE" transform="translate(333,146)"/>
<path d="M0 0 C3.93268867 -0.02473868 7.86534713 -0.04287835 11.7980957 -0.05493164 C13.79314768 -0.06242729 15.78817786 -0.07513345 17.78320312 -0.08789062 C19.03681641 -0.09111328 20.29042969 -0.09433594 21.58203125 -0.09765625 C22.73936768 -0.10289307 23.8967041 -0.10812988 25.08911133 -0.11352539 C28 0 28 0 31 1 C31 28.39 31 55.78 31 84 C17.95021434 73.12517862 14.66864396 58.40114873 13 42 C12.79217803 37.25036557 12.75097362 32.51953808 12.79418945 27.76635742 C12.81264014 25.67158964 12.81469674 23.57726324 12.81445312 21.48242188 C12.83306475 14.58788208 13.05183318 7.83438646 14 1 C9.38 1 4.76 1 0 1 C0 0.67 0 0.34 0 0 Z " fill="#7769FE" transform="translate(261,245)"/>
<path d="M0 0 C4.29 0 8.58 0 13 0 C13 26.07 13 52.14 13 79 C10.03 79 7.06 79 4 79 C3.47616113 69.73338941 2.95444104 60.46666263 2.43539429 51.19978237 C2.19429132 46.89639422 1.95247021 42.59304897 1.70898438 38.28979492 C1.47385233 34.13370656 1.24063743 29.97751458 1.00872803 25.82124519 C0.92010171 24.2388637 0.83079513 22.65652015 0.74078369 21.07421684 C0.61442765 18.85092672 0.49053345 16.62751162 0.3671875 14.40405273 C0.29612793 13.14052475 0.22506836 11.87699677 0.15185547 10.57518005 C0.0019209 7.04522426 -0.02669252 3.53265863 0 0 Z " fill="#2952FE" transform="translate(254,133)"/>
<path d="M0 0 C2.64 0 5.28 0 8 0 C9.08561913 6.50376571 9.41112108 13.01034979 9.75390625 19.58984375 C9.81907944 20.8071669 9.88425262 22.02449005 9.95140076 23.27870178 C10.08824607 25.85311644 10.22346887 28.4276178 10.35717773 31.00219727 C10.56018084 34.89304997 10.77096289 38.78342697 10.98242188 42.67382812 C11.64520035 55.13340331 12.1812916 67.52240873 12 80 C8.04 81.32 4.08 82.64 0 84 C0 56.28 0 28.56 0 0 Z " fill="#4051FE" transform="translate(246,133)"/>
<path d="M0 0 C4.56030824 3.80475422 8.85089392 7.74969621 13 12 C13.7425 11.071875 14.485 10.14375 15.25 9.1875 C19.41666667 4.29166667 19.41666667 4.29166667 22 3 C24.97 3 27.94 3 31 3 C31 19.17 31 35.34 31 52 C23.15969163 45.27973568 23.15969163 45.27973568 20.8125 42.375 C19.19954216 40.41885964 17.6367525 38.647131 15.8125 36.875 C12.40744661 33.35253098 10.94147073 30.61777242 10.6875 25.75 C10.30172233 20.90366804 8.37648876 18.07629896 5.56640625 14.203125 C2.3010889 9.61050908 0 5.68131482 0 0 Z " fill="#5D4DF9" transform="translate(377,456)"/>
<path d="M0 0 C2.5575 0.020625 5.115 0.04125 7.75 0.0625 C7.75 8.3125 7.75 16.5625 7.75 25.0625 C4.02922544 23.57419018 1.09679511 22.1429402 -2.25 20.0625 C-2.91 19.7325 -3.57 19.4025 -4.25 19.0625 C-4.25 18.4025 -4.25 17.7425 -4.25 17.0625 C-16.21474449 20.47368613 -27.76872118 24.26691823 -39.25 29.0625 C-40.24 29.3925 -41.23 29.7225 -42.25 30.0625 C-41.92 28.7425 -41.59 27.4225 -41.25 26.0625 C-45.705 29.0325 -45.705 29.0325 -50.25 32.0625 C-50.91 31.7325 -51.57 31.4025 -52.25 31.0625 C-46.73971227 26.37658603 -41.2722888 21.97696854 -35.1875 18.0625 C-30.15514165 14.80320055 -25.88362585 11.12430256 -21.50390625 7.046875 C-14.78820983 1.1342688 -8.74665792 -0.0996745 0 0 Z " fill="#A342EA" transform="translate(167.25,153.9375)"/>
<path d="M0 0 C0 12.21 0 24.42 0 37 C-4.3914546 34.8042727 -7.03019008 32.31575294 -10.4375 28.875 C-11.01935059 28.28823486 -11.60120117 27.70146973 -12.20068359 27.09692383 C-18.50995599 20.6135348 -25 12.51717013 -25 3 C-18 0 -18 0 0 0 Z " fill="#A84DF9" transform="translate(250,246)"/>
<path d="M0 0 C0 4.35188675 -2.66969146 6.41139425 -5.4375 9.5 C-6.55984977 10.77493706 -7.68093526 12.05098816 -8.80078125 13.328125 C-9.35330566 13.95654297 -9.90583008 14.58496094 -10.47509766 15.23242188 C-12.43979471 17.50978446 -14.2784096 19.87633889 -16.125 22.25 C-25.56611489 33.82742555 -36.46812821 46.25739492 -50 53 C-51.02867187 53.54333984 -51.02867187 53.54333984 -52.078125 54.09765625 C-55.50687838 55.76161009 -57.40507189 56.11807699 -61 55 C-59.89591797 54.22076172 -59.89591797 54.22076172 -58.76953125 53.42578125 C-51.45687809 48.20206016 -51.45687809 48.20206016 -45 42 C-45 42.66 -45 43.32 -45 44 C-35.44629666 39.54160511 -28.54185495 30.92318242 -21.80859375 23.02734375 C-18.83326815 19.69215155 -15.61221666 16.60476197 -12.43359375 13.46484375 C-9.64820065 10.64368317 -7.03881788 7.71153259 -4.47265625 4.69140625 C-3.04541597 3.05216211 -1.55487662 1.51774524 0 0 Z " fill="#0C8BDF" transform="translate(526,606)"/>
<path d="M0 0 C1.10311523 0.17563477 2.20623047 0.35126953 3.34277344 0.53222656 C9.64126123 1.54281096 15.93110096 2.60349657 22.20703125 3.74609375 C23.2741333 3.93872803 24.34123535 4.1313623 25.44067383 4.32983398 C28 5 28 5 30 7 C28.86046875 6.855625 27.7209375 6.71125 26.546875 6.5625 C2.73937041 3.70040952 -19.7986991 4.79595189 -42.9453125 11.328125 C-46 12 -46 12 -49 11 C-44.03452328 8.90692909 -39.03639399 6.91623968 -34 5 C-33.22994629 4.70657715 -32.45989258 4.4131543 -31.66650391 4.11083984 C-20.6851333 0.02427406 -11.73433054 -1.9980201 0 0 Z " fill="#0B8BE0" transform="translate(271,214)"/>
<path d="M0 0 C13.15219645 4.61907084 24.72098393 16.17004172 35.1875 25.0625 C35.75782959 25.54501221 36.32815918 26.02752441 36.91577148 26.5246582 C44.05659052 32.64403369 50.12420921 39.14894034 55.75 46.6875 C56.31332031 47.43322266 56.87664062 48.17894531 57.45703125 48.94726562 C58.97669722 50.96091285 60.48964314 52.97936643 62 55 C62.99983732 56.33345533 63.99979272 57.66682216 65 59 C64.505 59.99 64.505 59.99 64 61 C63.27296875 60.14019531 62.5459375 59.28039062 61.796875 58.39453125 C46.85925114 40.79870815 31.42421048 24.97115866 13 11 C12.12214844 10.33355469 11.24429687 9.66710937 10.33984375 8.98046875 C8.56642519 7.64493131 6.78457856 6.32058813 5 5 C4.01 5.495 4.01 5.495 3 6 C2.01 4.02 1.02 2.04 0 0 Z " fill="#0B8FDE" transform="translate(396,171)"/>
<path d="M0 0 C3.465 1.485 3.465 1.485 7 3 C3.82547083 5.60489403 0.57173608 8.01934194 -2.80908203 10.34936523 C-9.52661268 14.99701349 -15.56252716 20.02185805 -21.4765625 25.65234375 C-23.57507609 27.60467605 -25.66807477 29.34137713 -28 31 C-26.37069223 27.0404032 -23.64352747 24.19692751 -20.75 21.125 C-19.97221191 20.29029175 -19.97221191 20.29029175 -19.17871094 19.4387207 C-12.94744357 12.80022321 -6.48029192 6.39401584 0 0 Z " fill="#0B8ADA" transform="translate(177,239)"/>
<path d="M0 0 C0.8154126 0.07831055 1.6308252 0.15662109 2.47094727 0.23730469 C6.20580211 0.65074849 8.44966852 1.00811234 11.625 3.125 C-9.165 3.125 -29.955 3.125 -51.375 3.125 C-48.0635275 1.46926375 -46.64811787 0.84814849 -43.20703125 0.4921875 C-42.40515381 0.40807617 -41.60327637 0.32396484 -40.77709961 0.23730469 C-39.92253174 0.15899414 -39.06796387 0.08068359 -38.1875 0 C-37.29619385 -0.0834668 -36.4048877 -0.16693359 -35.48657227 -0.25292969 C-23.54836847 -1.29371251 -11.92433611 -1.17151372 0 0 Z " fill="#2C6FD7" transform="translate(287.375,242.875)"/>
<path d="M0 0 C-0.66 0.33 -1.32 0.66 -2 1 C-2 1.66 -2 2.32 -2 3 C-3.05960938 3.38478516 -3.05960938 3.38478516 -4.140625 3.77734375 C-12.40434183 6.86066523 -20.39386486 10.37801138 -28.37011719 14.14038086 C-29.2005957 14.52460205 -30.03107422 14.90882324 -30.88671875 15.3046875 C-31.63139404 15.65515137 -32.37606934 16.00561523 -33.14331055 16.36669922 C-33.75601807 16.57568848 -34.36872559 16.78467773 -35 17 C-35.66 16.67 -36.32 16.34 -37 16 C-36.34926514 15.61666504 -35.69853027 15.23333008 -35.02807617 14.83837891 C-32.0806961 13.10146886 -29.13409012 11.3632498 -26.1875 9.625 C-25.16333984 9.02171875 -24.13917969 8.4184375 -23.08398438 7.796875 C-22.10107422 7.21679688 -21.11816406 6.63671875 -20.10546875 6.0390625 C-19.19949951 5.50490723 -18.29353027 4.97075195 -17.36010742 4.42041016 C-15.54414072 3.32748637 -13.76351828 2.17567885 -12 1 C-7.98943724 -0.11404521 -4.14363981 -0.08124784 0 0 Z " fill="#5255FB" transform="translate(224,224)"/>
<path d="M0 0 C1.69598775 1.41499569 3.37469716 2.84405947 5.03515625 4.30078125 C6.28137341 5.37852372 7.55796462 6.42284166 8.87109375 7.41796875 C10.64226334 8.87826331 11.88234509 9.98822116 13 12 C12.89978146 15.21226785 12.10790934 17.99663132 11 21 C7.53339086 17.87084839 5.45274375 14.60425759 3.25 10.5 C2.32960938 8.81390625 2.32960938 8.81390625 1.390625 7.09375 C0 4 0 4 0 0 Z " fill="#0C87DB" transform="translate(377,456)"/>
<path d="M0 0 C10.81443688 0.63614335 20.24586691 5.3809205 29.5625 10.5625 C30.24119141 10.93826172 30.91988281 11.31402344 31.61914062 11.70117188 C35.24557348 13.77809581 38.1880072 15.8445577 41 19 C37.46330444 18.44151365 34.93601692 17.58659377 31.91796875 15.671875 C31.15790527 15.20386475 30.3978418 14.73585449 29.61474609 14.25366211 C28.81375488 13.75745361 28.01276367 13.26124512 27.1875 12.75 C19.63415488 8.18966972 12.44270452 5.13128664 3.9296875 2.90234375 C2.47949219 2.45568359 2.47949219 2.45568359 1 2 C0.67 1.34 0.34 0.68 0 0 Z " fill="#367EF1" transform="translate(301,246)"/>
<path d="M0 0 C8.04591968 3.65773928 17.04679945 12.29091374 20.42578125 20.4375 C20.86789644 23.0294425 21.12540457 25.37740877 21 28 C17.87126589 24.18078664 15.01529986 20.22854552 12.1875 16.1875 C8.76206524 11.32811792 5.22444232 6.72641347 1.1796875 2.35546875 C0 1 0 1 0 0 Z " fill="#0B90DD" transform="translate(381,266)"/>
<path d="M0 0 C11.63516883 5.23006282 22.92030028 19.45688308 28 31 C27.67 31.66 27.34 32.32 27 33 C26.5153125 32.32195312 26.030625 31.64390625 25.53125 30.9453125 C18.73538352 21.50951327 11.86580054 12.58247398 3.50463867 4.49023438 C2.32105386 3.34246499 1.15833828 2.17324337 0 1 C0 0.67 0 0.34 0 0 Z " fill="#108BE2" transform="translate(351,272)"/>
<path d="M0 0 C0 0.33 0 0.66 0 1 C-1.80984375 1.29003906 -1.80984375 1.29003906 -3.65625 1.5859375 C-5.27086216 1.84878134 -6.88544388 2.11181217 -8.5 2.375 C-9.29148437 2.50132812 -10.08296875 2.62765625 -10.8984375 2.7578125 C-14.78162882 3.39440124 -18.59471689 4.11032559 -22.40625 5.09375 C-25.47955113 5.86875637 -27.86395043 6.1960031 -31 6 C-22.03426578 -1.46429548 -11.01526966 -1.51934754 0 0 Z " fill="#05B2CB" transform="translate(270,214)"/>
<path d="M0 0 C0.66 0.33 1.32 0.66 2 1 C-3.51005601 7.22052168 -9.3133813 11.72170059 -17 15 C-17.99 15 -18.98 15 -20 15 C-13.56904997 9.59078969 -7.11603348 4.48046552 0 0 Z " fill="#1785E0" transform="translate(135,170)"/>
<path d="M0 0 C0 0.66 0 1.32 0 2 C-2.60183588 2.69761537 -5.20583602 3.38337774 -7.8125 4.0625 C-8.55048828 4.26166016 -9.28847656 4.46082031 -10.04882812 4.66601562 C-15.66015625 6.11328125 -15.66015625 6.11328125 -19 5 C-16.58848443 3.96520787 -14.17205531 2.9470628 -11.75 1.9375 C-11.06808594 1.64294922 -10.38617188 1.34839844 -9.68359375 1.04492188 C-5.98010605 -0.48321625 -3.8159653 -1.24129373 0 0 Z " fill="#0F9BD7" transform="translate(241,220)"/>
<path d="M0 0 C3.62276315 1.3255581 6.63505348 2.94346955 9.8125 5.125 C10.60269531 5.66382813 11.39289063 6.20265625 12.20703125 6.7578125 C12.79871094 7.16773438 13.39039063 7.57765625 14 8 C11 9 11 9 8.08203125 7.56640625 C7.00308594 6.90511719 5.92414063 6.24382812 4.8125 5.5625 C3.72582031 4.90378906 2.63914062 4.24507813 1.51953125 3.56640625 C0.68808594 3.04949219 -0.14335937 2.53257812 -1 2 C-0.67 1.34 -0.34 0.68 0 0 Z " fill="#2A89F5" transform="translate(328,256)"/>
<path d="M0 0 C3.88593571 1.85445956 6.89948513 3.96838546 10 7 C10.875 10.3125 10.875 10.3125 11 13 C6.78185183 9.0299782 3.38772897 4.69159716 0 0 Z " fill="#3481F4" transform="translate(317,388)"/>
<path d="M0 0 C1.75074015 2.62611022 3.15770769 5.18202857 4.5625 8 C4.99691406 8.86625 5.43132812 9.7325 5.87890625 10.625 C7 13 7 13 8 16 C3.75667588 14.25274889 2.63319887 12.14059758 0.75 8.109375 C-0.23720136 5.33287118 -0.29151293 2.91512932 0 0 Z " fill="#9552F5" transform="translate(225,252)"/>
<path d="M0 0 C1 2 1 2 0.00390625 5.4765625 C-0.46900047 6.86197936 -0.94981644 8.24471547 -1.4375 9.625 C-1.68048828 10.33140625 -1.92347656 11.0378125 -2.17382812 11.765625 C-2.77587205 13.51273287 -3.38708017 15.25667786 -4 17 C-5.38318083 12.56394147 -4.48340828 9.30529414 -3 5 C-1.375 2 -1.375 2 0 0 Z " fill="#0E82D6" transform="translate(382,432)"/>
<path d="M0 0 C0.66 0.33 1.32 0.66 2 1 C-0.27301934 3.54344286 -2.45086481 4.87616437 -5.5625 6.25 C-6.74005859 6.78367188 -6.74005859 6.78367188 -7.94140625 7.328125 C-10 8 -10 8 -12 7 C-10.04754815 5.80285445 -8.08785003 4.61751926 -6.125 3.4375 C-5.03445312 2.77621094 -3.94390625 2.11492187 -2.8203125 1.43359375 C-1.88960937 0.96050781 -0.95890625 0.48742187 0 0 Z " fill="#5C4EFE" transform="translate(199,233)"/>
<path d="M0 0 C0.99 0.33 1.98 0.66 3 1 C-0.19990508 3.74277578 -3.00499382 5.6302836 -7 7 C-4.66666667 4.66666667 -2.33333333 2.33333333 0 0 Z " fill="#0B82D3" transform="translate(122,179)"/>
<path d="M0 0 C4.455 1.98 4.455 1.98 9 4 C9 4.66 9 5.32 9 6 C5.21213403 5.4739075 2.82847776 4.61896089 0 2 C0 1.34 0 0.68 0 0 Z " fill="#296FD4" transform="translate(319,251)"/>
<path d="M0 0 C0.66 0.33 1.32 0.66 2 1 C-0.25 3.5625 -0.25 3.5625 -3 6 C-4.32 5.67 -5.64 5.34 -7 5 C-4.69 3.35 -2.38 1.7 0 0 Z " fill="#0A7ECE" transform="translate(472,656)"/>
</svg>
