<?xml version="1.0" encoding="UTF-8"?>
<svg version="1.1" xmlns="http://www.w3.org/2000/svg" width="719" height="166">
<path d="M0 0 C16.8486179 13.02624488 27.98603506 32.23458695 31.5546875 53.26953125 C34.15512722 75.05391664 30.24074269 97.75236829 16.9140625 115.62890625 C1.29429285 134.97829436 1.29429285 134.97829436 -7.5625 136.6875 C-10.50500225 136.61354124 -11.7578636 136.18777925 -14.10546875 134.3671875 C-20.65231449 127.33141521 -25.97029492 119.18189756 -31.41210938 111.28613281 C-33.03129084 108.95494966 -34.6751849 106.64328722 -36.328125 104.3359375 C-36.86977295 103.57804932 -37.4114209 102.82016113 -37.96948242 102.03930664 C-39.00349157 100.59391239 -40.03997094 99.15028092 -41.0793457 97.70874023 C-48.0558382 87.90578189 -48.0558382 87.90578189 -47.91015625 82.93359375 C-46.89941244 79.6757886 -45.56443418 77.71364826 -43.4375 75.0625 C-41.0885012 71.83866832 -40.04384452 70.23915192 -39.3125 66.25 C-40.14704655 62.30487084 -41.37110604 60.05520109 -44 57 C-46.88803093 55.25198128 -48.56773304 54.99080283 -51.9375 55.0625 C-55.77342428 56.23676253 -58.50172364 57.88662526 -61 61 C-63.38593977 67.91957496 -63.21279967 74.56261872 -63.08984375 81.8203125 C-63.06943244 84.31900856 -63.04925723 86.81770655 -63.02929688 89.31640625 C-62.98573165 93.23136905 -62.93720942 97.14619765 -62.88354492 101.06103516 C-62.83527226 104.8557896 -62.8054057 108.65036274 -62.77734375 112.4453125 C-62.75558578 113.61417999 -62.73382782 114.78304749 -62.71141052 115.98733521 C-62.64839335 126.3131289 -62.64839335 126.3131289 -66 131 C-69.7373856 133.4915904 -71.57331583 133.45793285 -76 133 C-78.75329021 131.20437595 -80.52627461 129.94745078 -82 127 C-82.11207025 124.96520163 -82.1593253 122.92672162 -82.17700195 120.88891602 C-82.18983719 119.60320206 -82.20267242 118.3174881 -82.21589661 116.99281311 C-82.22406935 115.57984809 -82.23151206 114.16687869 -82.23828125 112.75390625 C-82.24235678 112.04132093 -82.2464323 111.32873562 -82.25063133 110.59455681 C-82.27151079 106.8147498 -82.28579804 103.03497918 -82.29516602 99.25512695 C-82.30616733 95.3750936 -82.34048743 91.49564382 -82.38033772 87.61581516 C-82.40667462 84.61379538 -82.41487337 81.61191018 -82.41844749 78.60978508 C-82.4232784 77.18142748 -82.43479095 75.75307444 -82.45348549 74.32483101 C-82.59717389 62.60825333 -81.34929464 52.50063496 -73.00390625 43.72265625 C-64.50504281 36.41661575 -55.70984371 35.32058053 -44.91308594 35.82519531 C-37.34499733 36.51671541 -30.8640976 41.40469818 -26 47 C-21.44866894 54.22792029 -19.13169085 61.39176277 -20 70 C-20.80986428 73.40248175 -21.86973098 76.69189556 -23 80 C-23.391875 81.19625 -23.78375 82.3925 -24.1875 83.625 C-24.455625 84.40875 -24.72375 85.1925 -25 86 C-23.68 87.32 -22.36 88.64 -21 90 C-15.11626823 78.83887524 -11.83367028 68.6746316 -14.6875 55.9296875 C-17.99402255 46.0376742 -23.96157234 38.31276626 -33 33 C-45.63654998 27.75025681 -54.3466152 28.11810514 -67 33 C-75.76979959 37.0073112 -81.85863562 42.929372 -85.875 51.75 C-87.59089624 56.70703357 -88.12529267 61.07440044 -88.1418457 66.31567383 C-88.14888016 67.57080276 -88.15591461 68.8259317 -88.16316223 70.11909485 C-88.16497812 70.78489374 -88.16679401 71.45069263 -88.16866493 72.13666725 C-88.17587901 74.23547227 -88.19158191 76.33405001 -88.21000671 78.43278503 C-88.2622437 84.39762247 -88.31041602 90.3623313 -88.32592773 96.32739258 C-88.33605635 99.98387386 -88.3654987 103.63977504 -88.40724754 107.29602623 C-88.41948935 108.68212162 -88.42469136 110.06829916 -88.42244911 111.45444679 C-88.41283577 119.33678097 -88.57322925 125.32595893 -93 132 C-96.10048928 133.55024464 -98.57894218 133.28992015 -102 133 C-104.75329021 131.20437595 -106.52627461 129.94745078 -108 127 C-108.10720402 124.87849258 -108.1488947 122.75357359 -108.16113281 120.62939453 C-108.16609772 119.97538162 -108.17106262 119.32136871 -108.17617798 118.64753723 C-108.19082049 116.47595165 -108.19760963 114.30443943 -108.203125 112.1328125 C-108.20888048 110.61742146 -108.21463817 109.10203043 -108.22039795 107.5866394 C-108.23091778 104.4005296 -108.23675212 101.21444505 -108.24023438 98.02832031 C-108.24568163 93.97586419 -108.26962344 89.92375047 -108.29820633 85.87140083 C-108.31698934 82.73466072 -108.32204684 79.5979999 -108.32357025 76.46120834 C-108.32656878 74.96950307 -108.33450077 73.47779823 -108.34775543 71.98614883 C-108.50309748 53.13848063 -103.93655717 38.22913113 -90.5859375 24.4375 C-80.02532418 14.48308503 -66.97855047 9.16420909 -52.34375 8.9453125 C-35.5091728 9.73229477 -20.9204616 14.66392799 -8.8125 26.9375 C2.5625027 40.0904138 6.96767234 54.89383516 6.14794922 72.05908203 C5.15707085 85.05822893 -0.89806084 96.84420321 -10 106 C-9.01 107.65 -8.02 109.3 -7 111 C3.53509641 103.53764004 9.55477795 90.66227692 11.72314453 78.14111328 C14.11446973 59.64735488 10.89705098 42.44505039 -0.26806641 27.27734375 C-10.56873485 14.3239948 -24.90134705 6.04668816 -41.28125 3.28125 C-52.87166806 2.08224124 -63.00501815 3.33500605 -74 7 C-78.47732458 7.36107456 -80.93126855 7.54573521 -84.9375 5.5 C-87.71919999 2.12824243 -88.39846808 -0.66016285 -88 -5 C-85.6698944 -9.88212601 -81.72872204 -11.25818383 -76.92578125 -13.10546875 C-50.21096063 -21.2732844 -22.56896621 -15.83568347 0 0 Z " fill="#0C8CE0" transform="translate(115,23)"/>
<path d="M0 0 C0.63035156 0.76763672 0.63035156 0.76763672 1.2734375 1.55078125 C4.01033441 3.84804088 7.04777755 3.22175136 10.4375 3.0625 C22.16565169 2.81513204 34.13062967 3.58190217 43.140625 12 C48.68758436 18.13322336 49.35941455 22.61583242 49.27734375 30.83203125 C48.78527379 36.4527177 46.13008998 38.89559388 42.25 42.6875 C36.4346724 46.82532925 29.76769906 49.01625944 22.62890625 49.24609375 C21.80712891 49.27896484 20.98535156 49.31183594 20.13867188 49.34570312 C18.42526014 49.40675722 16.71171077 49.46406691 14.99804688 49.51757812 C10.59661851 49.70025291 7.00870203 49.96683901 3 52 C3 52.99 3 53.98 3 55 C5.87738315 56.43869157 8.41215263 56.1648585 11.625 56.2109375 C12.98568827 56.23904696 14.34636516 56.26771159 15.70703125 56.296875 C17.84162572 56.33780308 19.9760172 56.37470042 22.11083984 56.40136719 C34.30565613 56.56673996 45.38572498 57.21166511 54.375 66.4375 C57.10390454 72.42009842 57.35115871 79.15822614 55.15234375 85.41015625 C50.94312354 92.81553012 44.16546413 97.04698065 36.17578125 99.45703125 C29.3647456 101.15673314 22.87438171 101.21983025 15.875 101.25 C14.11542969 101.2809375 14.11542969 101.2809375 12.3203125 101.3125 C0.8410431 101.36351898 -9.58100372 99.59604804 -18.4375 91.875 C-20.76161119 87.59863542 -21.14578826 83.74250109 -20 79 C-17.11224258 75.15227963 -13.2763459 73.04356353 -9 71 C-9.66 70.01 -10.32 69.02 -11 68 C-11.78902077 61.56486957 -11.61364718 55.4787554 -8 50 C-4.3125 48.5625 -4.3125 48.5625 -1 48 C-1.67546875 47.62488281 -2.3509375 47.24976563 -3.046875 46.86328125 C-9.63590898 43.08315626 -14.90411839 39.68489922 -17 32 C-17.37297994 26.8452259 -16.86827139 22.08558958 -16 17 C-16.33 16.34 -16.66 15.68 -17 15 C-17.34444547 9.74720662 -17.57741751 6.17365376 -14 2 C-9.01368256 -1.47882612 -5.69913525 -1.30799825 0 0 Z M-9.8515625 11.82421875 C-11.29584908 13.51150142 -12.67726951 15.21631797 -14 17 C-11.51627701 20.31163065 -10.30122257 20.95627414 -6.125 21.5625 C-1.38285212 21.3409043 0.75160504 19.3276241 4 16 C5.36952673 13.26094655 5.12621361 11.02912668 5 8 C4.67 7.34 4.34 6.68 4 6 C-1.63152864 6 -5.81042478 7.84276028 -9.8515625 11.82421875 Z M6.0625 21.25 C4.23117474 24.26630042 4.52742534 26.57383373 5 30 C7.47725976 33.5610609 9.65923501 35.22902352 13.875 36 C18.30020707 36.30171866 21.15524654 35.15306194 25 33 C27.50031654 29.24952518 27.53603554 27.44143734 27 23 C24.47546592 19.48095249 22.77994896 18.23109599 18.625 17 C13.62480957 17 10.21796339 18.56905588 6.0625 21.25 Z M-2 76 C-2.66743877 78.41344667 -2.66743877 78.41344667 -2 81 C5.31497752 87.12416722 13.88280627 86.56486961 23 86 C28.04164186 85.05794063 32.66955925 84.14223568 36 80 C36.41679297 77.45769153 36.41679297 77.45769153 36 75 C31.4664946 70.4664946 23.56521776 71.81626346 17.5625 71.8125 C16.53833984 71.80025391 15.51417969 71.78800781 14.45898438 71.77539062 C5.47466187 71.60129423 5.47466187 71.60129423 -2 76 Z " fill="#001644" transform="translate(527,52)"/>
<path d="M0 0 C16.8486179 13.02624488 27.98603506 32.23458695 31.5546875 53.26953125 C34.15676042 75.06759827 30.22722893 97.71870187 16.92578125 115.62109375 C11.97390327 121.73811949 6.65491155 127.52750495 1 133 C0.34 132.67 -0.32 132.34 -1 132 C-0.2265625 131.38125 -0.2265625 131.38125 0.5625 130.75 C2.20968533 129.1545187 2.20968533 129.1545187 1.875 127.28125 C0.62681752 124.02705995 -1.43707089 121.47107004 -3.5625 118.75 C-4.19961914 117.91855469 -4.19961914 117.91855469 -4.84960938 117.0703125 C-5.89398341 115.70910589 -6.94622464 114.35394167 -8 113 C-7 111 -7 111 -3.9375 108.75 C5.87322343 100.41290375 11.1550193 86.08479374 12.20263672 73.58154297 C13.20430227 54.93487926 9.33763834 38.50689034 -2.93115234 24.03344727 C-14.42087534 11.27859571 -30.41888957 3.84130773 -47.53125 2.78125 C-56.96617163 2.55112996 -65.09211047 4.03070349 -74 7 C-78.47732458 7.36107456 -80.93126855 7.54573521 -84.9375 5.5 C-87.71919999 2.12824243 -88.39846808 -0.66016285 -88 -5 C-85.6698944 -9.88212601 -81.72872204 -11.25818383 -76.92578125 -13.10546875 C-50.21096063 -21.2732844 -22.56896621 -15.83568347 0 0 Z " fill="#1A9ADE" transform="translate(115,23)"/>
<path d="M0 0 C8.38207564 4.59094601 13.63845528 10.46376259 17 19.4375 C19.25807824 28.91567556 17.51091404 36.86982105 13.5625 45.625 C12.87659931 49.05450346 13.71069745 50.58138972 15.59765625 53.453125 C16.06042969 54.10796875 16.52320313 54.7628125 17 55.4375 C17.53496094 56.23671875 18.06992188 57.0359375 18.62109375 57.859375 C21.27312158 61.75767872 23.96910677 65.49435572 27.125 69 C29.92140479 72.14410592 31.75710665 75.5124072 33.6953125 79.23046875 C35.41814324 82.14483812 37.57186591 84.44884407 39.9609375 86.83203125 C41 88.4375 41 88.4375 40.78515625 90.46875 C39.42134312 93.88846053 37.31548155 96.77975922 34 98.4375 C30.7074128 99.07291156 29.14261164 99.31677994 26 98.4375 C17.96277717 92.20455168 12.30413644 82.01758193 6.58789062 73.72363281 C4.96870916 71.39244966 3.3248151 69.08078722 1.671875 66.7734375 C1.13022705 66.01554932 0.5885791 65.25766113 0.03051758 64.47680664 C-1.00349157 63.03141239 -2.03997094 61.58778092 -3.0793457 60.14624023 C-10.0558382 50.34328189 -10.0558382 50.34328189 -9.91015625 45.37109375 C-8.89941244 42.1132886 -7.56443418 40.15114826 -5.4375 37.5 C-3.0885012 34.27616832 -2.04384452 32.67665192 -1.3125 28.6875 C-2.14704655 24.74237084 -3.37110604 22.49270109 -6 19.4375 C-8.88803093 17.68948128 -10.56773304 17.42830283 -13.9375 17.5 C-17.77342428 18.67426253 -20.50172364 20.32412526 -23 23.4375 C-25.38593977 30.35707496 -25.21279967 37.00011872 -25.08984375 44.2578125 C-25.06943244 46.75650856 -25.04925723 49.25520655 -25.02929688 51.75390625 C-24.98573165 55.66886905 -24.93720942 59.58369765 -24.88354492 63.49853516 C-24.83527226 67.2932896 -24.8054057 71.08786274 -24.77734375 74.8828125 C-24.75558578 76.05167999 -24.73382782 77.22054749 -24.71141052 78.42483521 C-24.64839335 88.7506289 -24.64839335 88.7506289 -28 93.4375 C-31.7373856 95.9290904 -33.57331583 95.89543285 -38 95.4375 C-40.75329021 93.64187595 -42.52627461 92.38495078 -44 89.4375 C-44.11207025 87.40270163 -44.1593253 85.36422162 -44.17700195 83.32641602 C-44.18983719 82.04070206 -44.20267242 80.7549881 -44.21589661 79.43031311 C-44.22406935 78.01734809 -44.23151206 76.60437869 -44.23828125 75.19140625 C-44.24235678 74.47882093 -44.2464323 73.76623562 -44.25063133 73.03205681 C-44.27151079 69.2522498 -44.28579804 65.47247918 -44.29516602 61.69262695 C-44.30616733 57.8125936 -44.34048743 53.93314382 -44.38033772 50.05331516 C-44.40667462 47.05129538 -44.41487337 44.04941018 -44.41844749 41.04728508 C-44.4232784 39.61892748 -44.43479095 38.19057444 -44.45348549 36.76233101 C-44.59717389 25.04575333 -43.34929464 14.93813496 -35.00390625 6.16015625 C-25.7056585 -1.83307428 -11.58420732 -4.75562195 0 0 Z " fill="#021748" transform="translate(77,60.5625)"/>
<path d="M0 0 C2.50446834 2.50446834 3.79016893 4.95157542 5.1875 8.1875 C5.6825 1.7525 5.6825 1.7525 6.1875 -4.8125 C13.1175 -4.8125 20.0475 -4.8125 27.1875 -4.8125 C27.21005299 4.16671106 27.22841622 13.14590345 27.23931217 22.12513638 C27.24454051 26.29412828 27.25163726 30.46309987 27.26293945 34.63208008 C27.27377008 38.65207686 27.27977721 42.67205405 27.28237724 46.69206429 C27.28423118 48.22912975 27.28785119 49.76619409 27.29323006 51.30325127 C27.30044284 53.44885487 27.30149084 55.59437655 27.30102539 57.73999023 C27.303246 58.96354721 27.30546661 60.18710419 27.30775452 61.44773865 C27.1875 64.1875 27.1875 64.1875 26.1875 65.1875 C24.6987814 65.27419432 23.206055 65.29453494 21.71484375 65.28515625 C20.81572266 65.28193359 19.91660156 65.27871094 18.99023438 65.27539062 C17.57194336 65.26282227 17.57194336 65.26282227 16.125 65.25 C14.7009082 65.24323242 14.7009082 65.24323242 13.24804688 65.23632812 C10.89450469 65.22450128 8.54099468 65.20656521 6.1875 65.1875 C5.8575 61.2275 5.5275 57.2675 5.1875 53.1875 C4.5275 54.425 3.8675 55.6625 3.1875 56.9375 C0.25322972 61.54267419 -2.56067227 63.69665858 -7.8125 65.1875 C-17.23928034 66.96427535 -26.56407705 66.5804042 -35.12890625 61.9296875 C-42.65749248 56.70110579 -47.26835772 50.09893291 -49.34375 41.1796875 C-51.17734793 29.47522068 -49.81657984 18.8239073 -43.12109375 8.9296875 C-38.08412114 2.22374784 -31.24085403 -2.83961016 -22.9453125 -4.53125 C-14.24703614 -5.67827545 -7.41655003 -4.77955446 0 0 Z M-24.6875 19.0625 C-28.53621092 24.722369 -29.73046703 29.38774419 -28.8125 36.1875 C-27.12376048 41.37238673 -24.66365798 45.50388069 -19.8125 48.1875 C-13.49858055 50.21157944 -7.97045801 50.8540712 -1.75390625 48.28515625 C2.4166078 45.92717949 4.44714482 43.28042713 6 38.890625 C7.85193245 31.4365969 6.90379044 25.62008088 3.5 18.8125 C-0.3244938 14.47118271 -4.07688055 13.35279709 -9.75 12.8125 C-15.5856184 13.08392411 -20.75204509 14.58462169 -24.6875 19.0625 Z " fill="#001644" transform="translate(278.8125,59.8125)"/>
<path d="M0 0 C6.6 0 13.2 0 20 0 C20.33 12.54 20.66 25.08 21 38 C22.32 35.36 23.64 32.72 25 30 C30.08116247 24.77769412 36.28887475 22.85244424 43.4375 22.5625 C50.1370049 22.76720709 55.54074481 24.60546205 60.375 29.3125 C65.72256418 38.15654846 66.15232713 46.48363653 66.09765625 56.52734375 C66.0962413 57.51626114 66.09482635 58.50517853 66.09336853 59.52406311 C66.08780088 62.66190704 66.0752544 65.79967787 66.0625 68.9375 C66.05748082 71.07356667 66.05291864 73.20963447 66.04882812 75.34570312 C66.0386958 80.56385245 66.01911412 85.78184503 66 91 C59.4 91 52.8 91 46 91 C45.94392578 86.91625 45.94392578 86.91625 45.88671875 82.75 C45.84041207 80.09220679 45.78921179 77.43454933 45.73754883 74.77685547 C45.70444262 72.94002642 45.67636683 71.10309914 45.65356445 69.26611328 C45.61975369 66.61448589 45.56742707 63.96374717 45.51171875 61.3125 C45.50532883 60.50071289 45.4989389 59.68892578 45.49235535 58.85253906 C45.35150866 53.30093649 44.27681082 49.08140369 42 44 C39.15370921 41.46996374 35.75455506 41.6359126 32.02734375 41.75390625 C28.78426206 42.14757513 26.66902721 43.137888 24 45 C20.71348086 50.0899113 20.53264771 54.47599911 20.48828125 60.3359375 C20.47033005 61.21528961 20.45237885 62.09464172 20.43388367 63.00064087 C20.37997188 65.79204605 20.34594671 68.58328211 20.3125 71.375 C20.27931 73.27476302 20.24481879 75.17450377 20.20898438 77.07421875 C20.12182114 81.71616759 20.06159037 86.35736051 20 91 C13.4 91 6.8 91 0 91 C0 60.97 0 30.94 0 0 Z " fill="#001644" transform="translate(590,34)"/>
<path d="M0 0 C4.17307256 3.6773512 5.88685036 6.83567811 6.40234375 12.29296875 C6.48162109 13.09951904 6.56089844 13.90606934 6.64257812 14.73706055 C6.69736328 15.34976807 6.75214844 15.96247559 6.80859375 16.59375 C3.53822647 16.73885162 0.26868368 16.82774373 -3.00390625 16.90625 C-3.93267578 16.94814453 -4.86144531 16.99003906 -5.81835938 17.03320312 C-8.36635361 17.0791958 -10.68775282 17.07564661 -13.19140625 16.59375 C-15.015625 14.19921875 -15.015625 14.19921875 -16.19140625 11.59375 C-19.71522602 9.64064789 -22.76371094 9.32155142 -26.75390625 9.34375 C-28.14802734 9.33601563 -28.14802734 9.33601563 -29.5703125 9.328125 C-32.38892071 9.61376637 -33.95976123 9.832724 -36.19140625 11.59375 C-36.58326445 13.58311127 -36.92095258 15.58428093 -37.19140625 17.59375 C-35.94435913 17.79738159 -35.94435913 17.79738159 -34.67211914 18.00512695 C-31.54562532 18.51928277 -28.4203259 19.0400781 -25.2956543 19.56518555 C-23.95103513 19.78979788 -22.60598858 20.01186891 -21.26049805 20.23120117 C-0.09921181 23.68594444 -0.09921181 23.68594444 6.80859375 30.59375 C9.73255852 35.27009092 9.30474563 40.26011732 8.80859375 45.59375 C6.04253366 53.45518395 0.47583329 57.03930048 -6.69140625 60.578125 C-17.68516079 65.04433778 -33.57647472 63.89214412 -44.48046875 59.92578125 C-49.96603316 57.23042467 -53.73176048 53.75967598 -57.12890625 48.71875 C-58.06621938 45.96194669 -58.46899242 43.76582244 -58.7578125 40.8984375 C-58.8410376 40.09132324 -58.9242627 39.28420898 -59.01000977 38.45263672 C-59.06987061 37.8392041 -59.12973145 37.22577148 -59.19140625 36.59375 C-55.94208698 36.41919979 -52.69397177 36.31283247 -49.44140625 36.21875 C-48.52101563 36.16847656 -47.600625 36.11820313 -46.65234375 36.06640625 C-44.03834508 36.00958019 -41.74543968 36.02561831 -39.19140625 36.59375 C-36.74609375 39.5 -36.74609375 39.5 -35.19140625 42.59375 C-29.72838435 45.87156314 -24.49306835 46.40085943 -18.19140625 45.59375 C-14.68662975 44.26389431 -14.68662975 44.26389431 -12.19140625 42.59375 C-12.19140625 40.94375 -12.19140625 39.29375 -12.19140625 37.59375 C-18.29131594 35.9365491 -24.37194812 34.52177133 -30.6105957 33.51342773 C-49.96252621 30.37985006 -49.96252621 30.37985006 -56.19140625 22.59375 C-58.68055984 19.0378163 -58.54646008 15.85439599 -58.19140625 11.59375 C-56.80320117 4.61149077 -53.00749814 0.51623057 -47.19140625 -3.40625 C-33.16270914 -10.56481881 -12.62183926 -9.44900994 0 0 Z " fill="#001644" transform="translate(455.19140625,62.40625)"/>
<path d="M0 0 C6.5512287 5.52620652 8.01787 13.32359729 8.72265625 21.453125 C8.84673615 24.92296987 8.83976457 28.38768282 8.8203125 31.859375 C8.81889755 32.8246814 8.8174826 33.78998779 8.81602478 34.7845459 C8.81046705 37.84077165 8.79792255 40.89692173 8.78515625 43.953125 C8.78013578 46.03645727 8.77557383 48.1197907 8.77148438 50.203125 C8.76136617 55.28651031 8.74178272 60.36973384 8.72265625 65.453125 C2.12265625 65.453125 -4.47734375 65.453125 -11.27734375 65.453125 C-11.33341797 61.47765625 -11.33341797 61.47765625 -11.390625 57.421875 C-11.43693624 54.83357852 -11.48813482 52.24542117 -11.53979492 49.65722656 C-11.5728941 47.86890229 -11.60097201 46.08047732 -11.6237793 44.29199219 C-11.65760331 41.70985301 -11.70992998 39.12862424 -11.765625 36.546875 C-11.77201492 35.75696167 -11.77840485 34.96704834 -11.7849884 34.15319824 C-11.94341419 28.06893856 -12.94875924 22.31907516 -16.90234375 17.453125 C-20.69155736 15.85766664 -24.23783637 15.81604498 -28.27734375 16.453125 C-32.37629292 18.53986276 -34.56203737 20.21761569 -36.27734375 24.453125 C-36.59868425 26.50806162 -36.59868425 26.50806162 -36.59619141 28.67089844 C-36.6160611 29.49144714 -36.63593079 30.31199585 -36.65640259 31.15740967 C-36.6737294 32.47167938 -36.6737294 32.47167938 -36.69140625 33.8125 C-36.7107724 34.71687805 -36.73013855 35.6212561 -36.75009155 36.55303955 C-36.80978206 39.43630599 -36.85623061 42.31961258 -36.90234375 45.203125 C-36.94053322 47.16017348 -36.97958552 49.11720533 -37.01953125 51.07421875 C-37.11709626 55.86710004 -37.19674816 60.65980812 -37.27734375 65.453125 C-43.87734375 65.453125 -50.47734375 65.453125 -57.27734375 65.453125 C-57.27734375 42.683125 -57.27734375 19.913125 -57.27734375 -3.546875 C-50.67734375 -3.546875 -44.07734375 -3.546875 -37.27734375 -3.546875 C-36.94734375 1.403125 -36.61734375 6.353125 -36.27734375 11.453125 C-35.57609375 10.23625 -34.87484375 9.019375 -34.15234375 7.765625 C-30.38239818 1.73157614 -25.57874905 -2.44651551 -18.58984375 -4.234375 C-11.47188729 -4.90588033 -5.95878055 -4.12257581 0 0 Z " fill="#001644" transform="translate(373.27734375,59.546875)"/>
<path d="M0 0 C6.6 0 13.2 0 20 0 C20 5.94 20 11.88 20 18 C25.94 18 31.88 18 38 18 C38 23.28 38 28.56 38 34 C32.06 34 26.12 34 20 34 C20.05110523 38.20085009 20.11408736 42.39802469 20.20751953 46.59765625 C20.23569611 48.02526937 20.25692727 49.45303753 20.27099609 50.88085938 C20.29247392 52.93700332 20.33913974 54.99129002 20.390625 57.046875 C20.41157227 58.28276367 20.43251953 59.51865234 20.45410156 60.79199219 C21.0932349 64.54790097 21.95959377 65.76634416 25 68 C28.27400478 68.48263789 28.27400478 68.48263789 31.75 68.25 C33.8125 68.1675 35.875 68.085 38 68 C38 73.61 38 79.22 38 85 C29.07135265 88.51291043 20.25286656 89.66536393 11.07421875 86.171875 C6.1020391 83.36273395 2.77701209 79.24640596 0.92407227 73.8894043 C-0.09510098 69.59972162 -0.25549805 65.82200411 -0.1953125 61.44140625 C-0.1924826 60.65225327 -0.18965271 59.86310028 -0.18673706 59.05003357 C-0.17563057 56.55402828 -0.15054455 54.05839502 -0.125 51.5625 C-0.11495785 49.86003126 -0.10583417 48.15755684 -0.09765625 46.45507812 C-0.0757226 42.30324424 -0.04125977 38.15168498 0 34 C-4.62 34 -9.24 34 -14 34 C-14 28.72 -14 23.44 -14 18 C-9.38 18 -4.76 18 0 18 C0 12.06 0 6.12 0 0 Z " fill="#001644" transform="translate(674,37)"/>
<path d="M0 0 C3.15068052 0.17846992 4.02750856 1.03032362 6.17578125 3.3984375 C6.88089844 4.38070312 7.58601563 5.36296875 8.3125 6.375 C9.03050781 7.35210937 9.74851563 8.32921875 10.48828125 9.3359375 C10.98714844 10.21507812 11.48601563 11.09421875 12 12 C10.77015151 15.68954546 10.28759381 15.35620309 7 17 C-0.92872734 24.07156763 -7.26774818 32.36835794 -9 43 C-9.09278111 45.10371051 -9.13519532 47.20992883 -9.1418457 49.31567383 C-9.14888016 50.57080276 -9.15591461 51.8259317 -9.16316223 53.11909485 C-9.16497812 53.78489374 -9.16679401 54.45069263 -9.16866493 55.13666725 C-9.17587901 57.23547227 -9.19158191 59.33405001 -9.21000671 61.43278503 C-9.2622437 67.39762247 -9.31041602 73.3623313 -9.32592773 79.32739258 C-9.33605635 82.98387386 -9.3654987 86.63977504 -9.40724754 90.29602623 C-9.41948935 91.68212162 -9.42469136 93.06829916 -9.42244911 94.45444679 C-9.41283577 102.33678097 -9.57322925 108.32595893 -14 115 C-17.10048928 116.55024464 -19.57894218 116.28992015 -23 116 C-25.75329021 114.20437595 -27.52627461 112.94745078 -29 110 C-29.10720402 107.87849258 -29.1488947 105.75357359 -29.16113281 103.62939453 C-29.16609772 102.97538162 -29.17106262 102.32136871 -29.17617798 101.64753723 C-29.19082049 99.47595165 -29.19760963 97.30443943 -29.203125 95.1328125 C-29.20888048 93.61742146 -29.21463817 92.10203043 -29.22039795 90.5866394 C-29.23091778 87.4005296 -29.23675212 84.21444505 -29.24023438 81.02832031 C-29.24568163 76.97586419 -29.26962344 72.92375047 -29.29820633 68.87140083 C-29.31698934 65.73466072 -29.32204684 62.5979999 -29.32357025 59.46120834 C-29.32656878 57.96950307 -29.33450077 56.47779823 -29.34775543 54.98614883 C-29.50427052 35.99615462 -24.81362682 21.23111487 -11.5078125 7.25390625 C-8.19044866 4.27241258 -5.12505476 2.6500219 -1 1 C-0.67 0.67 -0.34 0.34 0 0 Z " fill="#001745" transform="translate(36,40)"/>
<path d="M0 0 C-0.66 7.92 -1.32 15.84 -2 24 C-4.165625 24.103125 -6.33125 24.20625 -8.5625 24.3125 C-17.60028811 24.94432188 -17.60028811 24.94432188 -24.875 29.9375 C-27.28502311 34.35587569 -27.20229913 38.8912989 -27.31640625 43.828125 C-27.33718735 44.57713074 -27.35796844 45.32613647 -27.37937927 46.09783936 C-27.44457088 48.48180288 -27.50361783 50.86587312 -27.5625 53.25 C-27.60571416 54.86980254 -27.64932937 56.48959443 -27.69335938 58.109375 C-27.80097311 62.07280905 -27.90027164 66.03632834 -28 70 C-34.6 70 -41.2 70 -48 70 C-48 48.22 -48 26.44 -48 4 C-41.4 4 -34.8 4 -28 4 C-27.67 8.95 -27.34 13.9 -27 19 C-26.319375 17.47375 -25.63875 15.9475 -24.9375 14.375 C-21.52347863 7.61389885 -17.58414012 3.73142169 -10.4375 1.125 C-6.61895836 -0.09413073 -4.31162253 0 0 0 Z " fill="#001644" transform="translate(223,55)"/>
<path d="M0 0 C3.1332924 2.97803917 5.70760872 6.13156606 8.25 9.625 C8.95640625 10.58664063 9.6628125 11.54828125 10.390625 12.5390625 C12 15 12 15 12 17 C11.46890625 17.23074219 10.9378125 17.46148437 10.390625 17.69921875 C5.84684379 19.79698635 2.63938214 21.565838 0 26 C-0.83689206 29.95670209 -1.11313238 33.69017348 -1.06591797 37.7265625 C-1.05615936 38.82790527 -1.04640076 39.92924805 -1.03634644 41.06396484 C-1.02177399 42.23910645 -1.00720154 43.41424805 -0.9921875 44.625 C-0.97467538 47.13020431 -0.9577667 49.6354129 -0.94140625 52.140625 C-0.91041811 56.0775946 -0.87483153 60.01434994 -0.82861328 63.95117188 C-0.78627079 67.75914187 -0.76283609 71.56685891 -0.7421875 75.375 C-0.72356659 76.5501416 -0.70494568 77.7252832 -0.6857605 78.93603516 C-0.65318415 89.32247531 -0.65318415 89.32247531 -4 94 C-7.7373856 96.4915904 -9.57331583 96.45793285 -14 96 C-16.75329021 94.20437595 -18.52627461 92.94745078 -20 90 C-20.11207025 87.96520163 -20.1593253 85.92672162 -20.17700195 83.88891602 C-20.18983719 82.60320206 -20.20267242 81.3174881 -20.21589661 79.99281311 C-20.22406935 78.57984809 -20.23151206 77.16687869 -20.23828125 75.75390625 C-20.24235678 75.04132093 -20.2464323 74.32873562 -20.25063133 73.59455681 C-20.27151079 69.8147498 -20.28579804 66.03497918 -20.29516602 62.25512695 C-20.30616733 58.3750936 -20.34048743 54.49564382 -20.38033772 50.61581516 C-20.40667462 47.61379538 -20.41487337 44.61191018 -20.41844749 41.60978508 C-20.4232784 40.18142748 -20.43479095 38.75307444 -20.45348549 37.32483101 C-20.59725342 25.60176809 -19.34114056 15.52265068 -11.015625 6.7265625 C-7.67478366 3.86483407 -3.96406996 1.86967472 0 0 Z " fill="#011746" transform="translate(53,60)"/>
<path d="M0 0 C6.6 0 13.2 0 20 0 C20 21.78 20 43.56 20 66 C13.4 66 6.8 66 0 66 C0 44.22 0 22.44 0 0 Z " fill="#001644" transform="translate(474,59)"/>
<path d="M0 0 C1.1240625 0.44214844 2.248125 0.88429688 3.40625 1.33984375 C6.55788913 4.57217244 6.42985565 5.67318437 6.5859375 10.078125 C6.54608206 12.46945168 6.47456606 14.86041461 6.375 17.25 C6.33439453 19.08304688 6.33439453 19.08304688 6.29296875 20.953125 C6.22224838 23.97052741 6.12359116 26.9843757 6 30 C5.2575 29.24847656 4.515 28.49695313 3.75 27.72265625 C-4.44798667 19.60618366 -13.15515212 14.27630081 -25 13.5 C-30.84390624 13.82327992 -36.50609668 16.13234552 -42 18 C-44 18.66666667 -46 19.33333333 -48 20 C-46.36587557 18.29159719 -45.13093906 17.06546953 -43 16 C-44.59043379 10.91061189 -47.7446951 7.12543357 -51 3 C-54.1385057 3.74438917 -57.02009661 4.75837359 -60 6 C-54.11215547 -1.63239106 -43.20724041 -4.40035085 -33.99609375 -5.77734375 C-21.98481708 -6.66996796 -11.03875956 -4.84087447 0 0 Z " fill="#02BBC7" transform="translate(90,38)"/>
<path d="M0 0 C8.67195099 3.56632079 14.36317043 9.54126378 18.3125 17.921875 C21.61561975 26.73964533 20.46825493 34.750726 17.22265625 43.3515625 C15.66015625 46.4765625 15.66015625 46.4765625 14.22265625 48.3515625 C13.56265625 48.3515625 12.90265625 48.3515625 12.22265625 48.3515625 C10.45370764 46.07047237 8.79240181 43.78970703 7.16015625 41.4140625 C4.41423236 37.19500166 4.41423236 37.19500166 1.22265625 33.3515625 C0.95402166 31.93831096 0.70762918 30.52079897 0.47265625 29.1015625 C-0.49964013 24.53757425 -2.04150908 22.28686117 -5.77734375 19.3515625 C-6.68806641 19.00738281 -6.68806641 19.00738281 -7.6171875 18.65625 C-10.96550326 16.63393994 -12.77224449 13.59832192 -14.96484375 10.4140625 C-15.64063477 9.46370117 -15.64063477 9.46370117 -16.33007812 8.49414062 C-18.2136864 5.80851624 -19.73471474 3.47944952 -20.77734375 0.3515625 C-15.33031486 -2.37195195 -5.85291111 -1.36650245 0 0 Z " fill="#3589FE" transform="translate(74.77734375,59.6484375)"/>
<path d="M0 0 C12.38730369 8.85324519 22.0112022 21.05573707 24.75390625 36.4375 C25.81491725 47.48548759 26.38980394 60.4152941 20 70 C20.0220752 69.06430176 20.04415039 68.12860352 20.06689453 67.16455078 C20.60657854 40.96459483 20.60657854 40.96459483 9 18 C8.34 17.01 7.68 16.02 7 15 C7 23.58 7 32.16 7 41 C4.07411232 39.53705616 3.97798081 37.60481841 2.9375 34.5625 C1.63412332 30.7115274 1.63412332 30.7115274 0 27 C-0.08527628 24.96767366 -0.10716135 22.93252994 -0.09765625 20.8984375 C-0.09443359 19.68671875 -0.09121094 18.475 -0.08789062 17.2265625 C-0.07951172 15.95554687 -0.07113281 14.68453125 -0.0625 13.375 C-0.05798828 12.09625 -0.05347656 10.8175 -0.04882812 9.5 C-0.03701203 6.33328708 -0.02053815 3.16666644 0 0 Z " fill="#00DAB5" transform="translate(96,42)"/>
<path d="M0 0 C3.0625 2.4375 3.0625 2.4375 5 5 C5.33 5.33 5.66 5.66 6 6 C6.46219171 10.30193823 6.46394636 13.96164387 4.6875 17.9375 C2.62521745 20.45806757 0.96895962 21.85876182 -2.3046875 22.3359375 C-6.53302696 22.40019798 -9.2524915 22.42047353 -13 20.3125 C-16.1805367 16.63500444 -17.04978046 14.39385279 -16.875 9.5 C-15.92080906 5.68323625 -14.71834365 3.8007177 -12 1 C-8.28803409 -0.85598295 -4.04117386 -0.59092637 0 0 Z " fill="#001644" transform="translate(489,34)"/>
<path d="M0 0 C0.71220703 -0.01224609 1.42441406 -0.02449219 2.15820312 -0.03710938 C6.2892489 -0.04857389 9.47517002 0.34227508 13.1875 2.1875 C13.24808594 3.11433594 13.30867188 4.04117188 13.37109375 4.99609375 C13.49677734 6.79240234 13.49677734 6.79240234 13.625 8.625 C13.70621094 9.81996094 13.78742188 11.01492187 13.87109375 12.24609375 C13.86406114 15.07320244 13.86406114 15.07320244 15.1875 16.1875 C15.27419432 17.6762186 15.29453494 19.168945 15.28515625 20.66015625 C15.28193359 21.55927734 15.27871094 22.45839844 15.27539062 23.38476562 C15.26701172 24.33029297 15.25863281 25.27582031 15.25 26.25 C15.24548828 27.19939453 15.24097656 28.14878906 15.23632812 29.12695312 C15.2245011 31.48053065 15.20802025 33.83398477 15.1875 36.1875 C12.1875 34.1875 12.1875 34.1875 11.6328125 32.19921875 C11.52710937 31.43222656 11.42140625 30.66523437 11.3125 29.875 C10.42919066 25.29651324 8.92451697 23.12372762 5.1875 20.1875 C4.27677734 19.84332031 4.27677734 19.84332031 3.34765625 19.4921875 C-0.00065951 17.46987744 -1.80740074 14.43425942 -4 11.25 C-4.67579102 10.29963867 -4.67579102 10.29963867 -5.36523438 9.33007812 C-7.24884265 6.64445374 -8.76987099 4.31538702 -9.8125 1.1875 C-6.6995419 -0.36897905 -3.41338167 0.00303952 0 0 Z " fill="#6970FE" transform="translate(63.8125,58.8125)"/>
<path d="M0 0 C0.84023188 4.35332736 1.10770995 8.44442519 1.0625 12.875 C1.05347656 14.02742188 1.04445312 15.17984375 1.03515625 16.3671875 C1.02355469 17.23601563 1.01195312 18.10484375 1 19 C0.45472656 19.17015625 -0.09054688 19.3403125 -0.65234375 19.515625 C-5.67633081 21.13017127 -10.4062996 23.01788129 -15.15234375 25.328125 C-16.06693359 25.66070312 -16.06693359 25.66070312 -17 26 C-17.66 25.67 -18.32 25.34 -19 25 C-17.35 24.01 -15.7 23.02 -14 22 C-15.59043379 16.91061189 -18.7446951 13.12543357 -22 9 C-25.1385057 9.74438917 -28.02009661 10.75837359 -31 12 C-24.80216425 3.96576847 -13.7161025 1.78924623 -4.14453125 0.26171875 C-2 0 -2 0 0 0 Z " fill="#564FFF" transform="translate(61,32)"/>
<path d="M0 0 C13.375 0.75 13.375 0.75 19 3 C19 9.6 19 16.2 19 23 C16.36328125 22.25130208 13.7265625 21.50260417 11.08984375 20.75390625 C7.77341952 19.94471551 4.37940677 19.4827724 1 19 C0.67 12.73 0.34 6.46 0 0 Z " fill="#0964F6" transform="translate(61,32)"/>
<path d="M0 0 C3.465 1.98 3.465 1.98 7 4 C7 16.21 7 28.42 7 41 C1.37692308 35.37692308 1.37692308 35.37692308 1.328125 30.734375 C1.30363281 29.76242188 1.27914062 28.79046875 1.25390625 27.7890625 C1.25197266 26.28472656 1.25197266 26.28472656 1.25 24.75 C1.21700191 22.74473174 1.18072778 20.73951376 1.140625 18.734375 C1.13579102 17.84975586 1.13095703 16.96513672 1.12597656 16.05371094 C1.228056 14.00722701 1.228056 14.00722701 0 13 C-0.07258946 10.81360547 -0.08373783 8.62499611 -0.0625 6.4375 C-0.05347656 5.23996094 -0.04445313 4.04242188 -0.03515625 2.80859375 C-0.02355469 1.88175781 -0.01195313 0.95492187 0 0 Z " fill="#4B7EFD" transform="translate(77,61)"/>
<path d="M0 0 C0.797837 6.69613196 1.12910853 13.25766581 1 20 C-4.2734375 23.22265625 -4.2734375 23.22265625 -6 24 C-6.66 23.67 -7.32 23.34 -8 23 C-6.35 22.01 -4.7 21.02 -3 20 C-4.59043379 14.91061189 -7.7446951 11.12543357 -11 7 C-14.1385057 7.74438917 -17.02009661 8.75837359 -20 10 C-15.63594779 4.34289528 -7.2170237 0 0 0 Z " fill="#9449FA" transform="translate(50,34)"/>
<path d="M0 0 C6.875 1.875 6.875 1.875 8 3 C8.08685603 4.56172745 8.10702219 6.12729344 8.09765625 7.69140625 C8.09443359 8.63564453 8.09121094 9.57988281 8.08789062 10.55273438 C8.07951172 11.54595703 8.07113281 12.53917969 8.0625 13.5625 C8.05798828 14.55958984 8.05347656 15.55667969 8.04882812 16.58398438 C8.03700007 19.05604849 8.02051849 21.52799518 8 24 C5.0280615 22.87548273 2.66559313 21.77706209 0 20 C-0.34057617 17.93701172 -0.34057617 17.93701172 -0.29296875 15.4296875 C-0.28330078 14.53378906 -0.27363281 13.63789062 -0.26367188 12.71484375 C-0.23853516 11.77769531 -0.21339844 10.84054688 -0.1875 9.875 C-0.17396484 8.93011719 -0.16042969 7.98523437 -0.14648438 7.01171875 C-0.11106306 4.67391221 -0.06167271 2.33723763 0 0 Z " fill="#02A1D5" transform="translate(80,35)"/>
<path d="M0 0 C0.91007812 0.00902344 1.82015625 0.01804688 2.7578125 0.02734375 C3.45648438 0.03894531 4.15515625 0.05054688 4.875 0.0625 C4.92398438 0.77535156 4.97296875 1.48820312 5.0234375 2.22265625 C5.45628523 7.76758491 6.11528816 12.78336449 7.875 18.0625 C6.885 18.3925 5.895 18.7225 4.875 19.0625 C2.86724902 16.44334613 0.87015805 13.81625554 -1.125 11.1875 C-1.69734375 10.44113281 -2.2696875 9.69476563 -2.859375 8.92578125 C-3.40078125 8.21035156 -3.9421875 7.49492188 -4.5 6.7578125 C-5.00273438 6.09797363 -5.50546875 5.43813477 -6.0234375 4.75830078 C-7.125 3.0625 -7.125 3.0625 -7.125 1.0625 C-4.60024538 -0.19987731 -2.81299534 -0.03606404 0 0 Z " fill="#9B56FD" transform="translate(61.125,58.9375)"/>
<path d="M0 0 C1.99954746 -0.04254356 4.00041636 -0.04080783 6 0 C7 1 7 1 7.11352539 3.04125977 C7.10828857 3.91580811 7.10305176 4.79035645 7.09765625 5.69140625 C7.09443359 6.63564453 7.09121094 7.57988281 7.08789062 8.55273438 C7.07951172 9.54595703 7.07113281 10.53917969 7.0625 11.5625 C7.05798828 12.55958984 7.05347656 13.55667969 7.04882812 14.58398438 C7.03700007 17.05604849 7.02051849 19.52799518 7 22 C3.13085938 20.22216797 3.13085938 20.22216797 1.953125 18.22265625 C-0.05293703 12.05958791 -0.32572375 6.4541558 0 0 Z " fill="#6A70FF" transform="translate(66,59)"/>
<path d="M0 0 C1.98 0 3.96 0 6 0 C7 1 7 1 7.11352539 2.76586914 C7.10828857 3.51473389 7.10305176 4.26359863 7.09765625 5.03515625 C7.09282227 6.24848633 7.09282227 6.24848633 7.08789062 7.48632812 C7.07951172 8.33646484 7.07113281 9.18660156 7.0625 10.0625 C7.05798828 10.91650391 7.05347656 11.77050781 7.04882812 12.65039062 C7.03700373 14.76695663 7.01906769 16.88348685 7 19 C5.02 19 3.04 19 1 19 C0.67 12.73 0.34 6.46 0 0 Z " fill="#1B55FE" transform="translate(61,32)"/>
<path d="M0 0 C0.33 0 0.66 0 1 0 C1.33 8.91 1.66 17.82 2 27 C-4.82608696 20.17391304 -4.82608696 20.17391304 -7 16 C-6.5 13.625 -6.5 13.625 -5 11 C-4.30602695 9.62825561 -3.61895832 8.25300428 -2.9375 6.875 C-2.59589844 6.21242188 -2.25429687 5.54984375 -1.90234375 4.8671875 C-0.87997124 2.85335678 -0.87997124 2.85335678 0 0 Z " fill="#4450FD" transform="translate(100,100)"/>
<path d="M0 0 C1.65 0.33 3.3 0.66 5 1 C5 7.6 5 14.2 5 21 C3.02 20.34 1.04 19.68 -1 19 C-0.67 12.73 -0.34 6.46 0 0 Z " fill="#047CE9" transform="translate(75,34)"/>
<path d="M0 0 C1.32 0.33 2.64 0.66 4 1 C4 8.59 4 16.18 4 24 C2.68 23.34 1.36 22.68 0 22 C0 14.74 0 7.48 0 0 Z " fill="#02B0CD" transform="translate(88,38)"/>
<path d="M0 0 C0.99 0.33 1.98 0.66 3 1 C3.33 7.27 3.66 13.54 4 20 C2.35 20.33 0.7 20.66 -1 21 C-1.797837 14.30386804 -2.12910853 7.74233419 -2 1 C-1.34 0.67 -0.68 0.34 0 0 Z " fill="#734DFF" transform="translate(52,33)"/>
<path d="M0 0 C1.32 0.33 2.64 0.66 4 1 C4 7.93 4 14.86 4 22 C2.68 21.34 1.36 20.68 0 20 C0 13.4 0 6.8 0 0 Z " fill="#0390DE" transform="translate(80,35)"/>
<path d="M0 0 C4.78722551 4.78722551 3.04778656 15.16028511 3.06591797 21.63500977 C3.06096602 25.42360329 3.03566515 29.21156874 3 33 C2.34 32.67 1.68 32.34 1 32 C-1.16350053 24.82512579 -1.09359728 18.36476694 -0.625 10.9375 C-0.56828125 9.88111328 -0.5115625 8.82472656 -0.453125 7.73632812 C-0.31305614 5.15672662 -0.16180414 2.57831375 0 0 Z " fill="#02B7C9" transform="translate(100,50)"/>
<path d="M0 0 C0 4.29 0 8.58 0 13 C-2.64752004 10.42215154 -4.94432065 8.08351902 -7 5 C-10.14737182 5.69941596 -13.02588876 6.76078698 -16 8 C-11.3870245 2.82787596 -7.05319401 0 0 0 Z " fill="#A248FA" transform="translate(46,36)"/>
<path d="M0 0 C0.99 0.33 1.98 0.66 3 1 C3 8.92 3 16.84 3 25 C0 22 0 22 -0.34057617 19.63989258 C-0.32486572 18.73392334 -0.30915527 17.8279541 -0.29296875 16.89453125 C-0.28330078 15.91162109 -0.27363281 14.92871094 -0.26367188 13.91601562 C-0.23853516 12.89185547 -0.21339844 11.86769531 -0.1875 10.8125 C-0.17396484 9.77673828 -0.16042969 8.74097656 -0.14648438 7.67382812 C-0.11111389 5.11536301 -0.06175544 2.5579422 0 0 Z " fill="#5E76FF" transform="translate(73,60)"/>
<path d="M0 0 C0.99 0 1.98 0 3 0 C3.04898438 0.71285156 3.09796875 1.42570312 3.1484375 2.16015625 C3.58128523 7.70508491 4.24028816 12.72086449 6 18 C5.01 18.33 4.02 18.66 3 19 C0.00643134 15.82500293 -0.9849016 14.1570863 -1.04296875 9.70703125 C-0.77700397 6.45516853 -0.44123244 3.23250719 0 0 Z " fill="#915CFD" transform="translate(63,59)"/>
<path d="M0 0 C1.32 0 2.64 0 4 0 C4 6.6 4 13.2 4 20 C0.63641561 16.63641561 0.07304938 12.69839798 -0.125 8.09375 C-0.125 5.39286838 -0.08786317 2.69935172 0 0 Z " fill="#7769FF" transform="translate(66,59)"/>
<path d="M0 0 C0.66 0 1.32 0 2 0 C2.84023188 4.35332736 3.10770995 8.44442519 3.0625 12.875 C3.05347656 14.02742188 3.04445312 15.17984375 3.03515625 16.3671875 C3.02355469 17.23601563 3.01195312 18.10484375 3 19 C2.01 19.33 1.02 19.66 0 20 C0 13.4 0 6.8 0 0 Z " fill="#4151FF" transform="translate(59,32)"/>
<path d="M0 0 C0.99 0 1.98 0 3 0 C3 6.27 3 12.54 3 19 C2.34 19 1.68 19 1 19 C0.67 12.73 0.34 6.46 0 0 Z " fill="#2A52FF" transform="translate(61,32)"/>
<path d="M0 0 C0.66 0 1.32 0 2 0 C2 3.96 2 7.92 2 12 C-2.90322581 7.09677419 -2.90322581 7.09677419 -3 4 C-1.6875 1.75 -1.6875 1.75 0 0 Z " fill="#5E4DFA" transform="translate(96,110)"/>
<path d="M0 0 C0 2.97 0 5.94 0 9 C-4.875 4.375 -4.875 4.375 -6 1 C-4 0 -4 0 0 0 Z " fill="#A94DF9" transform="translate(60,59)"/>
<path d="M0 0 C0 1.98 0 3.96 0 6 C-0.99 5.34 -1.98 4.68 -3 4 C-6.17535043 4.42338006 -9.05512526 5.77296886 -12 7 C-5.36842105 0 -5.36842105 0 0 0 Z " fill="#A542EB" transform="translate(42,37)"/>
</svg>
